<?xml version="1.0" encoding="utf-8"?>
<!-- Generator: Adobe Illustrator 27.5.0, SVG Export Plug-In . SVG Version: 6.00 Build 0)  -->
<svg version="1.1" xmlns="http://www.w3.org/2000/svg" xmlns:xlink="http://www.w3.org/1999/xlink" x="0px" y="0px"
	 viewBox="0 0 500 500" style="enable-background:new 0 0 500 500;" xml:space="preserve">
<g id="BACKGROUND">
	<g>
		<rect x="0" style="fill:#E6FFFF;" width="500" height="500"/>
	</g>
</g>
<g id="OBJECTS">
	<g style="opacity:0.3;">
		<rect x="0" y="401.889" style="fill:#18D4DE;" width="500" height="98.111"/>
	</g>
	<path style="opacity:0.2;fill:#1B2346;" d="M392.88,435.598c-11.81,0-31.427,3.327-40.88,5.402c13-12-22.505-33.213-53.541-33.213
		c-34.86,0-63.12,10.386-63.12,23.197c0,3.081,1.649,6.02,4.617,8.709c-10.266-2.656-22.773-4.22-36.281-4.22
		c-14.827,0-28.449,1.884-39.221,5.029c1.809-2.16,2.786-4.453,2.786-6.831c0-12.811-28.26-23.197-63.12-23.197
		S41,420.86,41,433.671c0,12.811,28.26,23.197,63.12,23.197c14.827,0,28.449-1.884,39.221-5.029
		c-1.809,2.16-2.786,4.453-2.786,6.831c0,12.811,28.26,23.197,63.12,23.197s63.12-10.386,63.12-23.197
		c0-3.081-1.649-6.02-4.617-8.709c10.266,2.656,22.773,4.22,36.281,4.22C310.27,454.181,335,451,346,444
		c-28,33,15.844,37.992,46.88,37.992c34.86,0,63.12-10.386,63.12-23.197C456,445.984,427.74,435.598,392.88,435.598z"/>
	<g>
		<g>
			<g>
				<path style="fill:#094370;" d="M244.145,157.436c-2.996-17.827,6.547-38.982,7.31-47.437
					c1.722-19.099,1.169-55.384,43.129-55.567s35.111,45.338,35.747,59.33c0.262,5.76,10.915,24.852,7.686,45.407
					C336.288,170.176,247.279,176.083,244.145,157.436z"/>
			</g>
			<g>
				<path style="fill:#FFC5B6;" d="M304.918,130.995c-0.178,2.5-0.659,12.889,0.107,13.777c0.702,0.813,8.471,1.889,11.25,2.198
					c-0.959,4.659-2.166,9.333-4.489,13.484c-2.323,4.151-5.886,7.773-10.383,9.321c-0.248,0.085-0.506,0.165-0.767,0.145
					c-0.299-0.023-0.571-0.175-0.831-0.326c-9.074-5.263-16.44-12.836-20.754-22.397c1.107-0.048,7.463-0.765,8.2-2.343
					c0.868-1.858,1.45-10.284,0.785-13.85L304.918,130.995z"/>
			</g>
			<g style="opacity:0.3;">
				<path style="fill:#F26666;" d="M287.849,142.302c0.487-3.329,0.681-8.651,0.188-11.298l16.881-0.009
					c-0.142,1.994-0.476,9-0.217,12.209C299.049,144.491,293.314,143.955,287.849,142.302z"/>
			</g>
			<g>
				<g>
					<path style="fill:#FFC5B6;" d="M324.096,102.466c0.263-0.435,0.537-0.866,0.871-1.249c1.073-1.23,2.784-1.871,4.401-1.648
						s3.091,1.3,3.793,2.774c0.222,0.466,0.37,0.964,0.482,1.468c0.94,4.231-0.765,8.835-3.951,11.774
						c-1.196,1.104-2.668,2.025-4.293,2.111c-0.704,0.037-1.442-0.097-2.007-0.519c-0.522-0.39-0.849-0.988-1.087-1.594
						C321.454,113.413,321.16,107.323,324.096,102.466z"/>
				</g>
				<g style="opacity:0.3;">
					<path style="fill:#F26666;" d="M331.44,104.091c1.622,1.385-0.226,8.209-2.764,10.551c-0.953,0.879-2.126,1.613-3.421,1.682
						c-0.561,0.03-1.149-0.077-1.599-0.414c-0.416-0.311-0.676-0.787-0.866-1.27C322.112,112.911,327.625,100.833,331.44,104.091z"
						/>
				</g>
				<g>
					<g>
						<path style="fill:#F26666;" d="M330.829,104.249c-4.263,1.203-6.238,5.672-6.073,9.755c0.016,0.385,0.613,0.388,0.601,0
							c-0.096-3.204,2.172-8.474,5.55-9.474C331.086,104.477,331.01,104.198,330.829,104.249L330.829,104.249z"/>
					</g>
				</g>
				<g>
					<g>
						<path style="fill:#F26666;" d="M326.542,109.125c0.765-0.692,1.431-0.081,1.426,0.839c-0.006,1.12-0.86,1.877-1.446,2.724
							c-0.163,0.236,0.144,0.45,0.355,0.355c1.355-0.609,2.224-2.724,1.639-4.094c-0.466-1.091-1.692-1.055-2.473-0.324
							C325.71,108.938,326.206,109.428,326.542,109.125L326.542,109.125z"/>
					</g>
				</g>
			</g>
			<g>
				<path style="fill:#FFC5B6;" d="M266.91,111.281c1.036,17.072,18.844,27.262,33.096,26.569
					c14.252-0.693,23.369-14.732,24.424-25.43c0.964-9.772,0.825-19.65-0.192-23.131c-3.217-11.013-11.293-20.461-23.937-20.009
					C271.331,70.315,265.573,89.255,266.91,111.281z"/>
			</g>
			<g style="opacity:0.3;">
				<path style="fill:#F26666;" d="M273.904,95.381c-3.302,5.626-3.822,17.444-4.77,15.697
					c-5.611-10.346,2.196-40.764,31.166-41.799c12.644-0.452,20.72,8.996,23.937,20.009c0.922,3.156,0.791,7.618,1.207,12.412
					c-1.5-1.223-1.993-4.815-3.119-6.408C308.996,97.053,286.599,98.128,273.904,95.381z"/>
			</g>
			<g>
				<g>
					<path style="fill:#FFC5B6;" d="M269.085,105.259c-1.501-2.607-4.403-4.643-7.376-4.187c-1.155,0.177-2.252,0.72-3.093,1.532
						c-1.414,1.365-2.036,3.414-1.949,5.377s0.822,3.849,1.793,5.558c1.819,3.198,4.896,6.068,8.574,6.136
						c1.228,0.023,2.574-0.354,3.242-1.384c0.333-0.513,0.46-1.128,0.58-1.727C271.115,115.279,271.951,110.237,269.085,105.259z"/>
				</g>
				<path style="opacity:0.3;fill:#F26666;" d="M260.776,105.766c-2.585-0.016-0.915,6.574,1.519,9.254
					c2.413,2.657,5.66,3.57,5.273-0.961C267.182,109.528,264.014,105.786,260.776,105.766z"/>
				<g>
					<g>
						<path style="fill:#F26666;" d="M261.509,105.891c3.378,0.999,5.646,6.27,5.55,9.474c-0.012,0.387,0.585,0.386,0.601,0
							c0.165-4.084-1.809-8.551-6.073-9.755C261.406,105.559,261.329,105.838,261.509,105.891L261.509,105.891z"/>
					</g>
				</g>
				<g>
					<g>
						<path style="fill:#F26666;" d="M266.372,109.987c-0.782-0.733-2.004-0.766-2.473,0.324c-0.589,1.368,0.288,3.486,1.639,4.094
							c0.211,0.095,0.519-0.118,0.355-0.355c-0.586-0.847-1.441-1.606-1.446-2.724c-0.005-0.919,0.655-1.537,1.426-0.839
							C266.209,110.79,266.705,110.299,266.372,109.987L266.372,109.987z"/>
					</g>
				</g>
			</g>
			<g>
				<g>
					<path style="fill:#F26666;" d="M304.436,117.355c-2.534,2.143-8.492,1.919-11.08,0.097c-0.306-0.215-0.693,0.28-0.403,0.522
						c3.231,2.702,8.737,2.611,11.785-0.316C304.94,117.464,304.644,117.179,304.436,117.355L304.436,117.355z"/>
				</g>
			</g>
			<path style="opacity:0.3;fill:#F26666;" d="M296.633,123.454c0,0.821,1.115,1.487,2.491,1.487s2.491-0.666,2.491-1.487
				s-1.115-0.844-2.491-0.844S296.633,122.632,296.633,123.454z"/>
			<g>
				<g>
					<path style="fill:#094370;" d="M320.552,94.75c-2.797-2.934-6.465-3.805-10.37-2.799c-1.883,0.485-1.041,3.515,0.801,2.906
						c2.62-0.866,6.278-0.939,8.482,0.98C320.206,96.481,321.242,95.473,320.552,94.75L320.552,94.75z"/>
				</g>
			</g>
			<g>
				<g>
					<path style="fill:#094370;" d="M278.036,96.045c2.907-2.17,7.637-2.154,10.969-1.1c1.85,0.585,2.684-2.423,0.801-2.906
						c-4.484-1.151-9.186-0.267-12.701,2.799C276.457,95.403,277.332,96.57,278.036,96.045L278.036,96.045z"/>
				</g>
			</g>
			<ellipse style="opacity:0.3;fill:#F26666;" cx="316.207" cy="116.356" rx="6.119" ry="4.371"/>
			<ellipse style="opacity:0.5;fill:#FFFFFF;" cx="315.918" cy="114.595" rx="2.466" ry="1.761"/>
			<ellipse style="opacity:0.3;fill:#F26666;" cx="281.016" cy="115.773" rx="6.119" ry="4.371"/>
			<g>
				<path style="opacity:0.3;fill:#F26666;" d="M299.663,108.868c-3.03-1.081-6.393,0.114-3.83,2.671
					c2.364,2.358,6.096,1.649,7.2-1.36C304.098,107.279,301.617,109.565,299.663,108.868z"/>
				<path style="opacity:0.5;fill:#FFFFFF;" d="M299.689,105.96c-0.979,0-2.229,0.945-1.258,1.913
					c0.895,0.893,2.309,0.625,2.727-0.515C301.562,106.26,300.475,105.96,299.689,105.96z"/>
				<g>
					<g>
						<path style="fill:#F26666;" d="M299.917,104.031c2.566,1.152,4.298,5.343,1.17,6.968c-0.406,0.211-0.116,0.802,0.3,0.712
							c1.948-0.426,2.73-2.414,2.367-4.239c-0.385-1.935-1.889-3.199-3.701-3.761C299.866,103.653,299.733,103.949,299.917,104.031
							L299.917,104.031z"/>
					</g>
				</g>
				<g>
					<g>
						<path style="fill:#F26666;" d="M298.345,110.949c-0.396-0.733-0.976-1.241-1.777-1.488c-0.806-0.248-0.95,1.168-0.148,1.096
							c0.578-0.052,1.147,0.157,1.481,0.652C298.085,111.481,298.504,111.243,298.345,110.949L298.345,110.949z"/>
					</g>
				</g>
			</g>
			<g>
				<path style="fill:#094370;" d="M326.22,74.371c-8.251-15.499-21.009-18.844-31.962-18.489
					c-22.692,0.735-31.392,14.315-33.873,21.16c-2.481,6.845-4.586,17.895-1.769,25.562c6.874-3.609,9.896,2.56,10.74,3.147
					c-1.756-17.512,39.314-19.382,45.092-29.9c0,0,10.633,17.825,10.519,25.367c1.812-1.692,2.844-1.605,4.033-1.692
					C329,99.525,331.195,83.716,326.22,74.371z"/>
			</g>
			<g>
				<g style="opacity:0.25;">
					<g>
						<path style="fill:#FFFFFF;" d="M316.878,72.07c3.58,3.454,6.186,7.727,7.541,12.514c1.328,4.69,1.082,9.452,1.819,14.203
							c0.109,0.701,1.12,0.467,1.168-0.158c0.758-10.037-2.769-20.14-10.271-26.815C316.961,71.659,316.708,71.907,316.878,72.07
							L316.878,72.07z"/>
					</g>
				</g>
				<g style="opacity:0.25;">
					<g>
						<path style="fill:#FFFFFF;" d="M309.336,67.086c-1.717,4.213-5.929,6.646-9.852,8.514c-4.685,2.23-9.632,3.837-14.49,5.639
							c-5.778,2.143-17.801,6.152-16.89,14.316c0.062,0.551,0.908,0.78,1.049,0.142c2.017-9.104,12.728-11.748,20.409-14.594
							c7.195-2.665,17.341-5.774,19.925-13.976C309.518,67.029,309.373,66.995,309.336,67.086L309.336,67.086z"/>
					</g>
				</g>
				<g style="opacity:0.25;">
					<g>
						<path style="fill:#FFFFFF;" d="M272.497,78.11c-6.808,4.791-11.3,14.384-8.856,22.679c0.228,0.773,1.299,0.436,1.181-0.326
							c-1.324-8.525,0.79-16.649,7.818-22.169C272.744,78.213,272.606,78.034,272.497,78.11L272.497,78.11z"/>
					</g>
				</g>
				<g style="opacity:0.25;">
					<g>
						<path style="fill:#FFFFFF;" d="M260.221,88.048c-1.916,3.278-2.421,7.471-2.037,11.211c0.038,0.374,0.569,0.386,0.591,0
							c0.223-3.887-0.256-7.484,1.649-11.093C260.494,88.033,260.297,87.917,260.221,88.048L260.221,88.048z"/>
					</g>
				</g>
			</g>
			<ellipse style="opacity:0.5;fill:#FFFFFF;" cx="281.016" cy="114.181" rx="2.466" ry="1.761"/>
			<g>
				<path style="fill:#111F44;" d="M282.339,102.74c1.046-0.044,1.881,0.25,2.543,0.756c0.041-0.007,0.093,0.01,0.138,0.013
					c0.014-0.009,0.016-0.01,0.039-0.026c0.088-0.061,0.199-0.098,0.29-0.157c0.18-0.117,0.336-0.272,0.497-0.412
					c0.392-0.342,0.615-0.706,0.754-1.21c0.057-0.207,0.35-0.117,0.316,0.087c-0.105,0.612-0.201,1.363-0.511,1.908
					c-0.132,0.232-0.341,0.547-0.592,0.796c0.149,0.22,0.651,0.56,0.821,0.569c0.014-0.009,0.016-0.01,0.039-0.026
					c0.088-0.061,0.199-0.098,0.29-0.157c0.18-0.117,0.336-0.272,0.497-0.412c0.392-0.342,0.615-0.706,0.754-1.21
					c0.057-0.207,0.35-0.117,0.316,0.087c-0.105,0.612-0.201,1.363-0.511,1.908c-0.25,0.439-0.775,1.179-1.343,1.187
					c0.12,0.442,0.207,0.897,0.261,1.352c0.061,0.51-0.759,0.6-0.884,0.12c-0.468-1.801-1.825-4.092-4.077-3.268
					c-1.345,0.493-2.055,1.818-2.822,2.919c-0.219,0.314-0.681,0.194-0.709-0.192C278.284,105.155,280.041,102.838,282.339,102.74z"
					/>
				<path style="fill:#111F44;" d="M313.992,102.74c1.046-0.044,1.881,0.25,2.543,0.756c0.041-0.007,0.093,0.01,0.138,0.013
					c0.014-0.009,0.016-0.01,0.039-0.026c0.088-0.061,0.199-0.098,0.29-0.157c0.18-0.117,0.336-0.272,0.497-0.412
					c0.392-0.342,0.615-0.706,0.754-1.21c0.057-0.207,0.35-0.117,0.316,0.087c-0.105,0.612-0.201,1.363-0.511,1.908
					c-0.132,0.232-0.341,0.547-0.592,0.796c0.149,0.22,0.651,0.56,0.821,0.569c0.014-0.009,0.016-0.01,0.039-0.026
					c0.088-0.061,0.199-0.098,0.29-0.157c0.18-0.117,0.336-0.272,0.497-0.412c0.392-0.342,0.615-0.706,0.754-1.21
					c0.057-0.207,0.35-0.117,0.316,0.087c-0.105,0.612-0.201,1.363-0.511,1.908c-0.25,0.439-0.775,1.179-1.343,1.187
					c0.12,0.442,0.207,0.897,0.261,1.352c0.061,0.51-0.759,0.6-0.884,0.12c-0.468-1.801-1.825-4.092-4.077-3.268
					c-1.345,0.493-2.055,1.818-2.822,2.919c-0.219,0.314-0.681,0.194-0.709-0.192C309.938,105.155,311.694,102.838,313.992,102.74z"
					/>
				<g>
					<path style="fill:none;stroke:#363C44;stroke-width:1.0822;stroke-miterlimit:10;" d="M293.676,102.438
						c0,0-3.31-3.193-10.803-3.161s-11.649,3.161-11.649,3.161s0.816,10.205,11.226,10.205
						C292.859,112.644,293.676,102.438,293.676,102.438z"/>
					<path style="fill:none;stroke:#363C44;stroke-width:1.0822;stroke-miterlimit:10;" d="M327.22,102.438
						c0,0-3.086-3.161-11.226-3.161c-8.14,0-11.226,3.161-11.226,3.161s0.816,10.205,11.226,10.205
						C326.404,112.644,327.22,102.438,327.22,102.438z"/>
					<path style="fill:none;stroke:#363C44;stroke-width:1.0822;stroke-miterlimit:10;" d="M304.768,102.438
						c0,0-2.089-2.716-5.794-2.644c-3.705,0.072-5.298,2.644-5.298,2.644"/>
					
						<line style="fill:none;stroke:#363C44;stroke-width:1.0822;stroke-miterlimit:10;" x1="271.224" y1="102.438" x2="268.045" y2="103.694"/>
				</g>
			</g>
			<g style="opacity:0.45;">
				<g style="opacity:0.65;">
					
						<ellipse transform="matrix(0.9359 -0.3522 0.3522 0.9359 -4.3739 102.5383)" style="fill:#FFFFFF;" cx="279.642" cy="63.291" rx="6.695" ry="3.472"/>
				</g>
				<g style="opacity:0.65;">
					
						<ellipse transform="matrix(0.6962 -0.7178 0.7178 0.6962 31.8241 215.1216)" style="fill:#FFFFFF;" cx="270.082" cy="69.96" rx="3.143" ry="1.63"/>
				</g>
			</g>
		</g>
		<path style="fill:#FFC5B6;" d="M328.406,245.73l-57.493-3.869c0,0-5.604,8.599-6.477,18.174
			c-0.475,7.885,0.283,15.871,1.666,24.167c3.436,15.808,8.919,26.645,3.292,46.736c-6.447,23.023-1.258,39.765,1.974,71.091
			c0,0,0.735,5.135-5,18.086c-2.903,6.555,0.328,14.323,2.659,14.658c2.332,0.334,9.073-4.57,10.722-8.827
			c1.649-4.257,1.066-14.221,1.262-17.743c0.446-8.027,4.619-31.522,7.023-52.628c1.144-10.051,0.405-20.301,1.437-26.698
			c3.565-22.091,7.198-38.882,10.191-61.368c0.294,14.905,0.154,51.022,1.342,64.048c0.412,4.517-1.1,13.109-0.753,23.063
			c0.653,18.752,3.013,42.338,2.883,52.623c-0.045,3.528-1.346,14.445,0.303,18.702c1.649,4.257,8.39,9.161,10.722,8.827
			c2.332-0.334,5.156-7.937,2.659-14.658c-2.311-6.22-5.478-6.789-4.684-19.3s13.936-41.296,9.124-67.924
			c-3.239-17.921,9.817-43.195,10.138-56.249C331.93,254.903,328.406,245.73,328.406,245.73z"/>
		<path style="opacity:0.3;fill:#F26666;" d="M331.394,276.642c0.535-21.74-2.989-30.913-2.989-30.913l-57.493-3.869
			c0,0-5.604,8.599-6.477,18.174c-0.475,7.885,0.283,15.871,1.666,24.167c3.436,15.808,8.919,26.645,3.292,46.736
			c-0.282,1.006-0.534,1.997-0.772,2.981c2.264-1.445,4.723-2.477,7.378-2.919c5.477-1.826,9.84,1.536,12.87,6.248
			c0.082-3.173,0.222-6.032,0.6-8.372c3.565-22.091,7.198-38.882,10.191-61.368c0.294,14.905,0.154,51.022,1.342,64.048
			c0.204,2.234-0.063,5.468-0.343,9.367c3.78-6.261,7.133-13.063,13.341-8.925c2.596,1.947,5.295,3.789,7.93,5.696
			c-0.166-1.607-0.386-3.21-0.674-4.805C318.017,314.97,331.073,289.697,331.394,276.642z"/>
		<path style="fill:#1B2346;" d="M266.843,418.9c-0.166,0.405-0.325,0.81-0.475,1.215c-2.497,6.72,0.328,14.323,2.659,14.657
			c2.332,0.334,9.073-4.57,10.722-8.827c0.721-1.861,0.973-4.816,1.063-7.846C277.009,426.587,266.873,425.866,266.843,418.9z"/>
		<g>
			<path style="fill:#1B2346;" d="M316.341,418.9c0.166,0.405,0.325,0.81,0.475,1.215c2.497,6.72-0.328,14.323-2.659,14.657
				c-2.332,0.334-9.073-4.57-10.722-8.827c-0.721-1.861-0.973-4.816-1.063-7.846C306.175,426.587,316.311,425.866,316.341,418.9z"/>
		</g>
		<path style="fill:#094370;" d="M331.394,276.642c0.535-21.74-2.989-30.913-2.989-30.913l-57.493-3.869
			c0,0-5.604,8.599-6.477,18.174c-0.475,7.885-0.628,15.871,0.754,24.167c2.53,11.64,3.053,23.277,2.053,34.643
			c6.673,2.289,49.734,3.635,56.526,2.642C325.444,305.405,331.137,287.102,331.394,276.642z"/>
		<g>
			<path style="fill:#00D0D6;" d="M320.611,147.408c-5.934-1.323-11.803-1.539-11.803-1.539c-2.667,10.34-15.58,14.035-24.764,0.563
				c-2.064,0-5.16,0.376-8.486,1.082c6.316,24.41,12.839,49.511,22.743,72.922C303.095,213.723,316.193,164.289,320.611,147.408z"/>
		</g>
		<path style="fill:#FFC5B6;" d="M352.41,255.77c-1.71-1.638-3.502-8.218-3.502-8.218l-8.241,2.936c0,0,2.86,5.902,2.745,8.078
			c-0.115,2.177-1.666,4.998-1.515,8.054c0.151,3.055,2.223,7.587,2.839,8.354c0.616,0.767,5.257,3.361,5.855,3.602
			c0.598,0.241,2.484,0.044,2.599-3.013c0,0,4.192-5.684,4.549-8.291C358.095,264.666,354.12,257.408,352.41,255.77z
			 M346.559,273.666c0.01-0.724-0.291-1.125-0.254-1.995c0.633,0.726,1.57,1.621,1.541,1.863
			C347.828,273.68,347.246,273.401,346.559,273.666z"/>
		<g>
			<g>
				<path style="fill:#FFFFFF;" d="M338.432,259.4c9.824-1.155,18.625-5.359,18.625-5.359s-4.63-24.432-9.033-48.598
					c-4.418-24.25-9.571-49.197-12.49-51.824c-3.513-3.162-15.55-6.547-20.753-7.215c-4.673,21.23-10.754,42.029-15.522,63.484
					c-4.583-21.083-12.665-42.166-18.395-63.25c-6.651,0.746-20.998,5.41-24.697,9.603c-4.371,4.954-11.763,58.392-11.763,58.392
					c-2.005,12.569,8.032,22.133,14.385,17.679c1.271-0.891,8.128-32.484,9.175-32.131c1.764,20.693-6.025,52.901-7.458,101.584
					c6.064,4.174,18.423,5.761,31.311,6.139c1.923-6.968,4.311-13.936,5.182-20.904c1.424,7.118,2.352,14.23,3.844,20.988
					c17.407-0.153,33.318-1.946,33.318-1.946c-0.262-76.826-7.769-80.106-5.033-106.763
					C330.399,199.002,336.971,247.553,338.432,259.4z"/>
			</g>
			<path style="opacity:0.15;fill:#094370;" d="M320.706,147.614c-1.663-0.423-3.222-0.764-4.533-0.994
				c2.283,11.632,4.438,22.179,6.101,35.46c-3.891,1.073-6.632,1.495-11.412,3.151c3.878,4.252,5.831,5.784,7.925,7.11
				c-5.517,6.103-15.57,18.422-20.118,30.272c-5.229-9.061-14.726-23.878-19.972-32.558c0,0,4.164-3.979,6.502-6.316
				c-4.182-2.32-8.831-4.225-10.019-4.805c0,0,4.329-22.555,4.111-32.155c-0.542,0.054-1.099,0.157-2.543,0.543
				c-1.559,12.303-5.364,32.305-5.364,32.305c1.268,1.556,6.523,5.201,8.698,6.289c-2.47,1.976-5.19,4.207-6.727,6.822
				c0.534,3.885,16.649,29.875,25.801,34.464c7.503-7.255,15.584-21.726,23.178-34.125c1.276-2.084-6.181-3.629-6.622-6.274
				c1.918,0,8.695-0.653,8.695-0.653C327.038,172.111,322.24,161.515,320.706,147.614z"/>
			<path style="opacity:0.15;fill:#094370;" d="M274.971,229.844c-3.844-8.197,1.526-16.514,0.063-25.541
				c-0.571-1.038-1.126-2.059-1.664-3.046c-1.86-3.255-1.462-6.058-0.015-8.52c-1.013-7.368-2.056-14.811-3.821-22.165
				c0-0.959-1.918,2.877-1.918,3.836c-1.918,14.384-2.877,31.644-13.425,39.315c-4.252,3.037-6.963-2.392-8.38-8.729
				c-0.869,5.76-1.405,9.638-1.405,9.638c-2.005,12.569,8.031,22.133,14.385,17.679c1.271-0.891,8.127-32.484,9.175-32.131
				c1.764,20.692-6.025,52.901-7.458,101.584c1.237,0.852,2.738,1.595,4.45,2.243C265.712,300.36,270.479,240.879,274.971,229.844z"
				/>
			<path style="opacity:0.15;fill:#094370;" d="M338.431,259.4c9.824-1.155,18.625-5.359,18.625-5.359s-0.482-2.545-1.28-6.788
				c-4.88,1.503-9.222,1.86-12.407-0.926c-9.589-8.63-1.918-27.809-10.548-42.192c-5.753-8.63,5.753-20.137,0-30.685
				c-5.183,11.847-8.081,23.696-11.339,35.984c0.802,16.988,6.982,91.716,5.51,97.289c4.437-0.372,7.169-0.68,7.169-0.68
				c-0.262-76.826-7.769-80.106-5.033-106.763C330.399,199.002,336.971,247.553,338.431,259.4z"/>
			<g style="opacity:0.5;">
				<g style="opacity:0.5;">
					<g>
						<path style="fill:#094370;" d="M330.775,172.031c0.475,8.701-0.73,17.062-2.521,25.552c-0.175,0.829,1.061,1.184,1.279,0.353
							c2.189-8.38,2.474-17.302,1.917-25.904C331.421,171.601,330.751,171.596,330.775,172.031L330.775,172.031z"/>
					</g>
				</g>
				<g style="opacity:0.5;">
					<g>
						<path style="fill:#094370;" d="M334.287,179.626c-0.477,5.792-2.704,10.556-4.672,15.907
							c-0.218,0.592,0.664,0.902,0.979,0.413c3.014-4.675,3.812-10.885,4.113-16.32
							C334.721,179.354,334.309,179.359,334.287,179.626L334.287,179.626z"/>
					</g>
				</g>
				<g style="opacity:0.5;">
					<g>
						<path style="fill:#094370;" d="M268,170.945c1.304,7.989,1.501,16.03,1.136,24.102c-0.036,0.799,1.213,0.8,1.244,0
							c0.312-8.134-0.484-16.24-1.838-24.251C268.481,170.439,267.942,170.591,268,170.945L268,170.945z"/>
					</g>
				</g>
				<g style="opacity:0.5;">
					<g>
						<path style="fill:#094370;" d="M272.023,173.802c0.315,4.473,0.167,8.961-0.523,13.395c-0.657,4.223-2.037,8.151-3.117,12.258
							c-0.163,0.621,0.786,1.076,1.075,0.453c3.63-7.818,4.092-17.664,3.337-26.106C272.75,173.313,271.987,173.303,272.023,173.802
							L272.023,173.802z"/>
					</g>
				</g>
				<g style="opacity:0.5;">
					<g>
						<path style="fill:#094370;" d="M278.614,148.723c-0.799,9.997-1.833,20.244-4.073,30.034
							c-0.087,0.382,0.119,0.671,0.462,0.813c3.395,1.413,6.671,2.899,9.819,4.811c-0.089-0.34-0.178-0.681-0.268-1.021
							c-1.628,2.516-3.676,4.485-6.243,6.033c-0.329,0.199-0.519,0.706-0.274,1.047c7.432,10.361,14.118,21.231,19.922,32.587
							c0.261,0.51,1.18,0.566,1.422,0c4.807-11.239,11.388-21.395,19.947-30.147c0.344-0.352,0.273-0.949-0.155-1.2
							c-3.018-1.773-5.545-4.038-7.632-6.847c-0.157,0.385-0.313,0.77-0.47,1.154c3.766-1.386,7.585-2.581,11.469-3.589
							c0.443-0.115,0.603-0.545,0.543-0.957c-1.646-11.3-2.859-22.698-6.458-33.592c-0.122-0.368-0.697-0.216-0.585,0.161
							c3.26,11.019,3.91,22.526,5.543,33.844c0.181-0.319,0.362-0.638,0.543-0.957c-3.885,1.003-7.706,2.193-11.474,3.574
							c-0.426,0.156-0.797,0.713-0.47,1.154c2.248,3.034,4.959,5.469,8.218,7.373c-0.052-0.4-0.103-0.8-0.155-1.2
							c-8.613,8.815-15.637,19.203-20.372,30.593c0.502-0.066,1.003-0.131,1.505-0.197c-5.92-11.296-12.575-22.173-20.022-32.528
							c-0.091,0.349-0.183,0.698-0.274,1.047c2.776-1.678,5.011-3.869,6.76-6.6c0.219-0.343,0.067-0.82-0.268-1.021
							c-2.503-1.506-5.095-2.842-7.808-3.929c-1.339-0.537-1.747-0.26-1.711-2.016c0.017-0.802,0.238-1.641,0.349-2.434
							c0.21-1.504,0.411-3.009,0.6-4.515c0.895-7.138,1.556-14.301,2.081-21.476C279.109,148.42,278.638,148.422,278.614,148.723
							L278.614,148.723z"/>
					</g>
				</g>
				<g style="opacity:0.5;">
					<g>
						<path style="fill:#094370;" d="M299.318,212.333c-0.539,12.575-0.967,25.155-1.496,37.731
							c-0.517,12.309-1.333,24.621-1.669,36.936c-0.03,1.095,1.631,1.082,1.693,0c1.414-24.827,1.799-49.805,1.786-74.667
							C299.633,212.13,299.327,212.131,299.318,212.333L299.318,212.333z"/>
					</g>
				</g>
			</g>
			<g style="opacity:0.5;">
				<g>
					<path style="fill:#094370;" d="M338.768,253.009c5.734,0.193,11.433-0.924,16.543-3.581c0.35-0.182,0.043-0.684-0.306-0.523
						c-5.173,2.387-10.521,3.666-16.237,3.532C338.399,252.428,338.401,252.997,338.768,253.009L338.768,253.009z"/>
				</g>
			</g>
		</g>
		<g>
			<g>
				<path style="fill:#094370;" d="M321.096,168.26l-1.557-0.348c1.13-5.045,1.472-10.174,1.046-15.681
					c-0.259-3.365-1.487-5.883-3.645-7.484c-4.39-3.256-11.287-1.783-11.354-1.769l-0.346-1.557
					c0.31-0.068,7.662-1.649,12.643,2.039c2.551,1.889,3.994,4.798,4.293,8.647C322.613,157.775,322.26,163.058,321.096,168.26z"/>
			</g>
			<g>
				<path style="fill:#094370;" d="M313.824,216.164c-0.182-0.079-4.471-1.982-6.454-6.212c-2.141-4.563,4.53-26.34,6.057-30.44
					l1.494,0.557c-2.253,6.052-7.722,25.767-6.108,29.207c1.722,3.672,5.608,5.409,5.648,5.427L313.824,216.164z"/>
			</g>
			<g>
				<path style="fill:#094370;" d="M324.462,216.672l-0.531-1.503l0.265,0.751l-0.267-0.751c0.04-0.014,4.056-1.495,5.424-5.59
					c1.364-4.081-1.89-21.429-4.443-28.224l1.493-0.561c2.419,6.44,6.085,24.435,4.462,29.29
					C329.245,214.936,324.656,216.604,324.462,216.672z"/>
			</g>
			<g>
				<path style="fill:#094370;" d="M315.924,217.934c-0.367,0.039-0.749-0.022-1.103-0.2l-3.968-1.984
					c-0.985-0.492-1.383-1.689-0.891-2.674c0.492-0.986,1.69-1.384,2.674-0.891l3.968,1.984c0.985,0.492,1.383,1.689,0.891,2.674
					C317.18,217.474,316.576,217.864,315.924,217.934z"/>
			</g>
			<g>
				<path style="fill:#094370;" d="M321.914,218.622c-0.829,0.089-1.658-0.353-2.025-1.152c-0.458-1.001-0.019-2.184,0.982-2.643
					l5.41-2.479c1.003-0.458,2.184-0.018,2.643,0.982c0.458,1.001,0.019,2.184-0.982,2.643l-5.41,2.479
					C322.331,218.544,322.122,218.6,321.914,218.622z"/>
			</g>
			<path style="fill:#094370;" d="M322.931,169.839l0.509-8.44c0.039-0.638-0.174-1.252-0.598-1.73
				c-0.423-0.478-1.008-0.763-1.647-0.802c-1.32-0.073-2.45,0.932-2.531,2.244l-0.506,8.384c-2.577,1.2-6.05,5.007-8.203,16.245
				c-0.247,1.294,0.605,2.55,1.9,2.799c0.625,0.119,1.262-0.009,1.792-0.369c0.529-0.359,0.887-0.903,1.007-1.529
				c1.509-7.856,4.4-12.945,5.595-12.881c1.138,0.255,3.597,6.686,4.739,13.552c0.208,1.249,1.355,2.122,2.613,1.987
				c0.046-0.005,0.092-0.011,0.137-0.019c0.631-0.105,1.183-0.448,1.555-0.968c0.371-0.519,0.518-1.152,0.414-1.782
				C328.809,181.1,326.813,172.549,322.931,169.839z"/>
		</g>
		<g>
			<circle style="fill:#094370;" cx="270.897" cy="195.093" r="5.47"/>
			<circle style="fill:#C2C7F9;" cx="270.894" cy="195.07" r="2.945"/>
			<g>
				<path style="fill:#094370;" d="M268.866,191.248c-0.268-0.695-6.505-17.183-1.211-31.051
					c3.552-9.306,11.065-16.56,16.277-18.197l0.478,1.521c-4.849,1.523-11.885,8.39-15.265,17.244
					c-5.072,13.288,1.146,29.745,1.209,29.91L268.866,191.248z"/>
			</g>
		</g>
		<path style="opacity:0.15;fill:#094370;" d="M269.609,194.958c0.042-0.042,0.079-0.085,0.119-0.128
			C269.666,195.053,269.609,195.148,269.609,194.958z"/>
		<g>
			<path style="fill:#094370;" d="M285.004,165.109c-7.67,3.123-32.685,13.468-43.421,19.851c-1.153,0.685-1.582,2.14-0.992,3.344
				l27.577,56.284c0.616,1.256,2.122,1.791,3.392,1.205l41.684-19.253c1.291-0.596,1.854-2.126,1.258-3.417l-26.192-56.708
				C287.733,165.166,286.278,164.59,285.004,165.109z"/>
			<path style="fill:#C2C7F9;" d="M249.745,177.53l2.393,5.182c0.234,0.507,0.834,0.727,1.341,0.494l22.955-10.603
				c0.507-0.234,0.727-0.834,0.494-1.341l-2.393-5.182c-0.234-0.507-0.834-0.727-1.341-0.494l-5.67,2.619l-1.188-2.573
				c-0.179-0.387-0.638-0.557-1.026-0.378l-10.212,4.717c-0.388,0.179-0.556,0.638-0.378,1.026l1.188,2.573l-5.67,2.619
				C249.732,176.423,249.511,177.023,249.745,177.53z M266.12,168.854l-8.809,4.069l-0.864-1.871l8.809-4.069L266.12,168.854z"/>
			<g>
				<path style="fill:#F0C3B3;" d="M252.635,212.885c0,0,9.981-5.104,10.751-2.702c0.394,1.227-8.462,6.509-8.242,7.114
					c0.22,0.606,11.381-4.142,11.437-2.105c0.056,2.037-9.729,4.912-8.903,5.297c0.826,0.385,10.828-2.446,10.666-0.453
					c-0.147,1.817-10.17,3.701-9.949,4.307c0.22,0.606,8.024-0.177,7.859,1.255c-0.165,1.432-6.056,2.204-8.093,2.259
					c-8.535,1.031-10.661-13.637-7.604-19.216C251.224,210.042,252.635,212.885,252.635,212.885z"/>
			</g>
		</g>
	</g>
	<g>
		<path style="fill:#1B2346;" d="M68.874,442.144c3.616,3.847,10.816,3.847,18.75,1.202c5.839-1.947,13.179-11.504,13.179-11.504
			s0.515-5.666-2.06-12.02h-20.09c0,0,0.075,4.659-3.943,8.4C70.13,432.486,65.471,438.524,68.874,442.144z"/>
		<path style="fill:#1B2346;" d="M152.827,442.144c-3.616,3.847-10.816,3.847-18.75,1.202c-5.839-1.947-13.179-11.504-13.179-11.504
			s-0.515-5.666,2.061-12.02h20.09c0,0-0.075,4.659,3.943,8.4C151.57,432.486,156.23,438.524,152.827,442.144z"/>
		<polygon style="fill:#1B2346;" points="72.212,311.247 75.75,423.434 102.596,423.434 110.35,329.583 119.785,423.434 
			146.693,423.434 149.488,311.936 		"/>
		<g>
			<path style="fill:#1B2346;" d="M137.446,120.822c-11.656,9.562-20.014,10.596-34.73,6.475
				c-13.276-3.514-22.577-14.801-26.865-27.671c-1.86-9.437-5.78-40.935,12.741-41.158c5.522-10.395,16.887-14.498,28.346-14.722
				c13.937-0.272,25.489,15.712,31.893,12.063c1.535,2.718,2.926,8.302-2.09,13.425C151.608,87.401,148.072,112.105,137.446,120.822
				z"/>
			<g>
				<g>
					<path style="fill:#F0C3B3;" d="M123.565,127.159c-0.187,2.628-0.693,13.549,0.113,14.482c0.738,0.855,8.905,3.752,11.826,4.076
						c-1.008,4.897-13.261,20.579-17.988,22.207c-0.261,0.09-0.532,0.174-0.806,0.152c-0.314-0.025-0.6-0.184-0.873-0.342
						c-9.538-5.532-19.636-13.493-24.171-23.543c1.164-0.05,7.845-0.804,8.62-2.463c0.913-1.953,1.524-10.811,0.826-14.559
						L123.565,127.159z"/>
				</g>
				<g style="opacity:0.3;">
					<path style="fill:#D66563;" d="M100.749,139.988c0.778-4.073,0.832-10.293,0.362-12.82l22.454-0.01
						c-0.149,2.096-0.805,10.815-0.057,14.063C117.035,144.456,106.335,142.139,100.749,139.988z"/>
				</g>
			</g>
			<g>
				<g>
					<path style="fill:#F0C3B3;" d="M142.281,96.258c0.276-0.457,0.564-0.91,0.916-1.313c1.128-1.293,2.926-1.966,4.626-1.733
						c1.7,0.233,3.25,1.367,3.987,2.916c0.233,0.49,0.389,1.014,0.506,1.543c0.988,4.448-0.804,9.288-4.153,12.377
						c-1.257,1.16-2.805,2.128-4.513,2.219c-0.74,0.039-1.516-0.102-2.11-0.546c-0.548-0.41-0.892-1.038-1.142-1.676
						C139.504,107.765,139.196,101.363,142.281,96.258z"/>
				</g>
				<g style="opacity:0.3;">
					<path style="fill:#D66563;" d="M150.001,97.966c1.705,1.456-0.237,8.63-2.906,11.091c-1.002,0.924-2.235,1.696-3.596,1.768
						c-0.59,0.031-1.208-0.081-1.681-0.435c-0.437-0.327-0.711-0.827-0.91-1.335C140.196,107.238,145.991,94.541,150.001,97.966z"/>
				</g>
				<g>
					<g>
						<path style="fill:#D66563;" d="M149.359,98.132c-4.471,1.261-6.54,5.977-6.375,10.254c0.015,0.393,0.625,0.395,0.613,0
							c-0.108-3.381,2.28-8.904,5.843-9.959C149.629,98.371,149.549,98.078,149.359,98.132L149.359,98.132z"/>
					</g>
				</g>
				<g>
					<g>
						<path style="fill:#D66563;" d="M144.842,103.247c0.734-0.664,1.432-0.232,1.508,0.713c0.097,1.203-0.79,2.116-1.477,2.988
							c-0.185,0.235,0.04,0.581,0.331,0.428c1.381-0.724,2.342-2.815,1.71-4.296c-0.485-1.139-1.763-1.1-2.577-0.337
							C144.002,103.058,144.503,103.554,144.842,103.247L144.842,103.247z"/>
					</g>
				</g>
			</g>
			<g>
				<path style="fill:#F0C3B3;" d="M83.68,106.482c0.061,3.178,3.194,25.59,23.725,29.503c10.503,2.002,22.615-0.865,29.982-10.474
					c9.124-11.9,7.507-41.45,6.077-46.345c-3.382-11.577-13.815-18.268-27.107-17.793C85.904,62.46,83.237,83.29,83.68,106.482z"/>
			</g>
			<g>
				<g>
					<path style="fill:#1B2346;" d="M127.571,111.495c-2.842-0.905-6.937-0.464-10.065-0.618c-3.953-0.195-7.959-0.746-11.581,0.468
						c-5.669,1.9-11.156,8.202-16.109,12.906c4.047,9.521,14.67,13.946,25.207,13.503c11.072-0.465,22.05-6.304,25.212-17.253
						C135.718,116.926,132.739,113.14,127.571,111.495z M125.433,130.937c-3.989,0.994-5.6-4.677-6.508-5.234
						c-0.909-0.557-2.551-0.124-3.089,0.051c-2.062,0.672-0.538,5.297-2.84,5.569c-9,1-10.359-13.149-5.563-17.386
						c2.858-2.525,6.627,0.163,9.989,0.075s4.589-1.99,8.011-1.075C133.14,114.999,129.422,129.943,125.433,130.937z"/>
				</g>
			</g>
			<g>
				<g>
					<path style="fill:#D66563;" d="M124.651,115.243c-4.668,2.722-10.872,1.909-15.704,0.069c-0.351-0.134-0.605,0.458-0.258,0.612
						c5.48,2.444,11.013,3.217,16.189-0.293C125.115,115.471,124.904,115.095,124.651,115.243L124.651,115.243z"/>
				</g>
			</g>
			<path style="opacity:0.3;fill:#D66563;" d="M112.996,122.24c0,1.332,1.808,1.822,4.039,1.822s4.039-0.491,4.039-1.822
				c0-1.332-1.808-1.369-4.039-1.369S112.996,120.908,112.996,122.24z"/>
			<g>
				<path style="fill:#1B2346;" d="M96.069,89.947c3.692-0.746,8.368-1.024,11.78-0.333c3.52,0.713,4.689-4.231,1.141-4.629
					c-5.324-0.598-9.49,0.087-13.932,2.265C93.621,87.953,94.479,90.494,96.069,89.947L96.069,89.947z"/>
			</g>
			<g>
				<path style="fill:#1B2346;" d="M138.395,89.036c-3.723-0.57-8.407-0.624-11.782,0.229c-3.482,0.88-4.885-4.003-1.36-4.569
					c5.29-0.851,9.483-0.365,14.024,1.598C140.745,86.929,140.009,89.507,138.395,89.036L138.395,89.036z"/>
			</g>
			<ellipse style="fill:#1B2346;" cx="131.852" cy="100.444" rx="2.144" ry="3.982"/>
			<ellipse style="fill:#1B2346;" cx="101.976" cy="100.444" rx="2.144" ry="3.982"/>
			<ellipse style="opacity:0.3;fill:#D66563;" cx="134.848" cy="109.594" rx="4.662" ry="3.33"/>
			<ellipse style="opacity:0.3;fill:#D66563;" cx="96.395" cy="109.817" rx="4.662" ry="3.33"/>
			<g>
				<path style="opacity:0.3;fill:#D66563;" d="M118.016,106.794c-2.865-1.492-6.177-0.018-3.482,2.67
					c2.485,2.478,6.408,1.734,7.569-1.429C123.222,104.986,119.951,107.801,118.016,106.794z"/>
				<path style="opacity:0.5;fill:#FFFFFF;" d="M119.176,103.651c-1.029,0-2.343,0.993-1.323,2.011
					c0.941,0.939,2.427,0.657,2.867-0.541C121.144,103.966,120.002,103.651,119.176,103.651z"/>
				<g>
					<g>
						<path style="fill:#D66563;" d="M118.992,96.986c0.633,3.064,4.939,9.949,1.071,11.974c-0.396,0.207-0.124,0.852,0.304,0.722
							c5.877-1.792-0.076-9.627-1.02-12.794C119.279,96.66,118.944,96.755,118.992,96.986L118.992,96.986z"/>
					</g>
				</g>
				<g>
					<g>
						<path style="fill:#D66563;" d="M117.175,108.895c-0.409-0.762-1.048-1.293-1.871-1.55c-0.828-0.258-0.971,1.204-0.152,1.123
							c0.623-0.061,1.201,0.171,1.557,0.699C116.901,109.455,117.341,109.204,117.175,108.895L117.175,108.895z"/>
					</g>
				</g>
			</g>
			<path style="fill:#1B2346;" d="M78.656,76.384c2.608-7.195,8.716-19.764,32.569-20.536c11.514-0.373,23.1,1.808,29.896,12.372
				c6.021,9.359,4.784,24.947,4.784,24.947c-0.339,4.174-2.308,11.595-2.106,7.696c0.665-12.829-4.934-21.049-4.013-29.265
				c-7.934,6.435-38.024,8.215-48.784,3.263c1.573,13.846-4.869,16.694-2.32,34.171c-1.669-1.735-10.514-7.657-11.024-10.01
				C76.039,91.541,76.048,83.58,78.656,76.384z"/>
			<circle style="opacity:0.5;fill:#FFFFFF;" cx="131.884" cy="98.196" r="0.856"/>
			<circle style="opacity:0.5;fill:#FFFFFF;" cx="101.913" cy="98.196" r="0.856"/>
			<g>
				<g>
					<path style="fill:#F0C3B3;" d="M85.851,99.193c-1.578-2.74-4.628-4.881-7.754-4.401c-1.215,0.186-2.367,0.757-3.251,1.611
						c-1.486,1.435-2.14,3.589-2.049,5.653c0.092,2.064,0.864,4.047,1.885,5.842c1.912,3.362,5.147,6.379,9.013,6.45
						c1.29,0.024,2.706-0.372,3.408-1.455c0.35-0.539,0.483-1.186,0.61-1.816C87.985,109.727,88.863,104.426,85.851,99.193z"/>
				</g>
				<path style="opacity:0.3;fill:#D66563;" d="M77.117,99.727c-2.717-0.016-0.961,6.91,1.597,9.728
					c2.537,2.793,5.95,3.753,5.543-1.01S80.52,99.748,77.117,99.727z"/>
				<g>
					<g>
						<path style="fill:#D66563;" d="M77.887,99.858c3.564,1.054,5.951,6.577,5.843,9.959c-0.013,0.395,0.597,0.393,0.613,0
							c0.166-4.278-1.902-8.992-6.375-10.254C77.778,99.509,77.698,99.803,77.887,99.858L77.887,99.858z"/>
					</g>
				</g>
				<g>
					<g>
						<path style="fill:#D66563;" d="M82.989,104.174c-0.816-0.764-2.088-0.8-2.577,0.337c-0.635,1.479,0.333,3.575,1.71,4.296
							c0.289,0.151,0.517-0.191,0.331-0.428c-0.687-0.872-1.573-1.784-1.477-2.988c0.075-0.936,0.769-1.382,1.508-0.713
							C82.824,104.985,83.326,104.489,82.989,104.174L82.989,104.174z"/>
					</g>
				</g>
			</g>
			<g style="opacity:0.45;">
				<g style="opacity:0.65;">
					
						<ellipse transform="matrix(0.9359 -0.3522 0.3522 0.9359 -14.4693 37.9798)" style="fill:#FFFFFF;" cx="97.154" cy="58.759" rx="6.695" ry="3.472"/>
				</g>
				<g style="opacity:0.65;">
					
						<ellipse transform="matrix(0.6962 -0.7178 0.7178 0.6962 -20.3574 82.7513)" style="fill:#FFFFFF;" cx="87.593" cy="65.428" rx="3.143" ry="1.63"/>
				</g>
			</g>
		</g>
		<g>
			<path style="fill:#00CBCD;" d="M150.97,150.557c-9.334-2.938-23.688-7.676-23.688-7.676
				c-1.402,5.435-12.558,13.036-12.558,13.036s-14.458-7.778-17.223-13.119c-3.235-0.181-14.118,3.252-22.858,6.445
				c9.522,33.522,18.054,68.935,42.569,94.325C131.352,213.718,141.851,182.718,150.97,150.557z"/>
		</g>
		<g>
			<path style="fill:#009EB2;" d="M112.59,167.722c-3.629,19.677-5.346,30.949-8.076,54.149c8.418,15.136,17.245,14.143,22.99-1.779
				c-2.443-14.887-5.454-36.806-9.215-52.012C116.609,167.889,116.234,168.633,112.59,167.722z"/>
		</g>
		<path style="fill:#F0C3B3;" d="M57.363,280.536v3.653c0,0,5.074,9.72,3.935,12.574c-1.139,2.854-3.507,2.233-3.507,2.233
			s1.022,3.52-0.428,4.659s-3.752,0.414-3.752,0.414s-2.325,1.854-4.671-0.626c0,0-3.278,1.144-4.313-2.377
			c0,0-1.893,0.098-3.017-2.591c-1.125-2.69,4.546-15.218,4.546-15.218v-3.695L57.363,280.536z"/>
		<g>
			<path style="fill:#FFFFFF;" d="M173.806,244.459c1.561-9.375,0.647-19.682,0.511-23.569
				c-0.416-11.953-6.656-57.857-13.064-64.474c-4.102-4.236-19.686-9.355-24.29-10.77c-0.539,3.729-9.044,53.204-21.573,73.318
				c-9.73-16.356-25.55-69.824-26.427-74.758c-9.666,2.203-22.482,7.454-27.304,12.732c-4.821,5.278-9.122,32.475-14.436,63.952
				c-5.089,30.147-8.262,59.543-7.449,60.298c3.011,2.798,19.788,3.502,24.309,1.715c1.009-0.399,7.357-60.229,7.357-60.229
				l-4.734,108.377c32.776,15.622,87.64-2.49,87.64-2.49c-3.982-18.685-4.221-110.544-4.221-110.544
				c0.94-0.321,2.463,22.762,4.261,40.767C163.651,255.966,172.245,253.834,173.806,244.459z"/>
		</g>
		<path style="opacity:0.15;fill:#094370;" d="M73.359,207.61c-4.795-7.671,1.918-17.26-4.795-23.973
			c-5.753,27.809-4.795,56.576-12.466,84.384c-0.959,0.959-2.877,2.877-3.836,2.877c-4.835-2.418-8.145-6.741-10.653-11.528
			c-1.553,12.679-2.274,21.412-1.836,21.819c3.011,2.798,19.788,3.502,24.309,1.715c1.009-0.399,7.357-60.229,7.357-60.229
			l-4.734,108.377c2.352,1.121,4.82,2.063,7.371,2.856c2.156-42.749,5.683-85.581,3.118-129.174
			C76.236,206.651,74.318,208.569,73.359,207.61z"/>
		<path style="opacity:0.15;fill:#094370;" d="M158.198,255.438c-5.119-16.758-7.353-36.592,4.34-49.746
			c-1.918-0.959-5.753,1.918-5.753,0.959c-1.918-6.712-4.795-14.384-3.836-22.055c-2.877,3.836-4.795,7.671-4.795,12.466
			c-3.651,44.722,0.51,89.444-3.213,134.165c5.841-1.491,9.404-2.665,9.404-2.665c-3.982-18.685-4.221-110.544-4.221-110.544
			c0.943-0.322,2.476,22.953,4.283,40.99C155.429,257.606,156.808,256.493,158.198,255.438z"/>
		<path style="opacity:0.15;fill:#094370;" d="M147.303,149.198c-2.249-0.855-4.425-1.617-6.282-2.241
			c-0.154,13.74,1.464,31.748,1.387,42.623c0,0-7.729,4.12-12.472,5.564c18.219,13.425-4.93,26.284-14.519,37.791
			c-9.12-11.63-19.612-20.4-27.042-30.473c0-0.959,4.344-7.603,6.464-11.063c-4.795-1.918-8.054-4.885-12.849-6.803
			c2.385-14.453,1.56-26.708,3.355-39.453c-2.058,0.581-4.179,1.257-6.292,2.029c-1.777,15.991-2.002,27.067-2.002,43.057
			c2.929,2.029,6.635,3.716,10.693,3.956c-1.497,3.403-2.335,9.51-2.335,9.51s10.286,27.816,27.856,41.886
			c-1.486,30.849-2.119,61.649-9.463,91.769c4.359-0.117,8.673-0.442,12.837-0.901c0.442-29.577,1.695-59.586-1.795-89.101
			c8.096-17.043,39.835-32.266,21.804-51.245c3.836-0.959,9.589-3.836,9.589-5.753C147.71,176.357,147.486,162.928,147.303,149.198z
			"/>
		<g>
			<path style="fill:#007685;" d="M112.639,173.019c1.991,0.382,4.429,0.293,5.951-0.126c4.09-4.958,3.394-12.159,0.377-20.184
				c-2.335,1.908-4.243,3.208-4.243,3.208s-0.78-0.42-2.003-1.126C108.7,162.003,106.727,167.338,112.639,173.019z"/>
		</g>
		<g>
			<path style="fill:#3EF2F4;" d="M114.858,158.206c2.699,3.568,4.186,5.621,6.911,9.73c5.345-8.017,8.725-15.125,10.869-23.86
				c-3.18-0.751-5.356-1.194-5.356-1.194c-1.402,5.435-12.558,13.036-12.558,13.036s-14.458-7.778-17.223-13.119
				c-0.843-0.047-2.213,0.092-3.922,0.376c0.593,10.206,8.287,18.131,15.08,25.401C110.966,163.9,112.454,162.199,114.858,158.206z"
				/>
		</g>
		<g>
			<g>
				<g>
					<path style="fill:#00CBCD;" d="M147.807,179.631c1.158,6.395,1.483,12.995,1.727,19.479c0.129,3.424,0.193,6.849,0.185,10.275
						c-0.007,2.859-0.323,5.782-0.192,8.632c0.029,0.637,1.052,0.856,1.175,0.159c0.498-2.83,0.306-5.926,0.274-8.791
						c-0.039-3.553-0.191-7.107-0.42-10.652c-0.415-6.446-1.043-12.886-2.289-19.229
						C148.207,179.202,147.753,179.332,147.807,179.631L147.807,179.631z"/>
				</g>
			</g>
			<g>
				<g>
					<path style="fill:#00CBCD;" d="M153.999,183.071c-1.256,6.672-2.609,13.325-4.011,19.968c-0.158,0.748,0.999,1.065,1.146,0.316
						c1.311-6.676,2.481-13.375,3.558-20.092C154.764,182.813,154.085,182.612,153.999,183.071L153.999,183.071z"/>
				</g>
			</g>
			<g>
				<g>
					<path style="fill:#00CBCD;" d="M73.34,188.523c-0.69,6.177-1.113,12.364-1.508,18.565c-0.218,3.433-0.478,6.863-0.713,10.295
						c-0.184,2.687-0.751,5.563-0.622,8.249c0.033,0.692,1.035,0.868,1.231,0.167c0.679-2.429,0.56-5.299,0.714-7.804
						c0.217-3.518,0.33-7.041,0.47-10.562c0.25-6.301,0.298-12.612,0.578-18.91C73.494,188.425,73.351,188.43,73.34,188.523
						L73.34,188.523z"/>
				</g>
			</g>
			<g>
				<g>
					<path style="fill:#00CBCD;" d="M41.444,274.751c7.033,2.784,14.824,2.897,22.029,0.66c0.727-0.226,0.404-1.388-0.314-1.14
						c-7.116,2.462-14.447,2.343-21.58-0.008C41.264,274.16,41.148,274.634,41.444,274.751L41.444,274.751z"/>
				</g>
			</g>
			<g>
				<g>
					<path style="fill:#00CBCD;" d="M69.591,192.258c0.479,4.871,0.015,9.852,0.097,14.74c0.046,2.732,0.125,5.476,0.414,8.194
						c0.149,1.401,0.138,3.671,1.205,4.722c0.311,0.307,0.812,0.071,0.832-0.345c0.091-1.858-0.776-4.081-0.954-5.964
						c-0.248-2.618-0.34-5.247-0.444-7.874c-0.177-4.491-0.156-9.066-0.781-13.524C69.932,191.999,69.57,192.046,69.591,192.258
						L69.591,192.258z"/>
				</g>
			</g>
			<g>
				<g>
					<path style="fill:#00CBCD;" d="M85.586,146.225c-1.21,12.984-2.411,25.973-3.763,38.943c-0.023,0.217,0.141,0.478,0.33,0.575
						c4.097,2.112,8.215,4.185,12.323,6.275c-0.086-0.327-0.172-0.655-0.258-0.982c-1.56,2.516-3.109,5.04-4.61,7.591
						c-0.553,0.94-2.139,2.835-1.927,4.054c0.113,0.649,0.949,1.368,1.34,1.86c1.199,1.512,2.437,2.994,3.675,4.474
						c7.028,8.396,14.147,16.995,22.198,24.44c0.696,0.643,1.74-0.397,1.042-1.042c-7.5-6.935-14.147-14.906-20.738-22.689
						c-1.322-1.561-2.636-3.128-3.932-4.71c-0.675-0.825-1.632-1.708-2.113-2.667c-0.172-0.344-0.029-0.072-0.063,0.223
						c0.019-0.168,0.26-0.59,0.344-0.704c0.669-0.894,1.154-2.048,1.725-3.014c1.407-2.379,2.856-4.732,4.297-7.091
						c0.193-0.315,0.085-0.811-0.258-0.982c-2.357-1.179-4.713-2.358-7.07-3.537c-1.031-0.516-2.062-1.032-3.093-1.548
						c-1.241-0.621-1.624-0.703-1.778-2.042c-0.23-2.001,0.318-4.393,0.46-6.407c0.14-1.974,0.282-3.948,0.426-5.922
						c0.61-8.367,1.217-16.733,1.854-25.098C86.019,145.959,85.611,145.964,85.586,146.225L85.586,146.225z"/>
				</g>
			</g>
			<g>
				<g>
					<path style="fill:#00CBCD;" d="M141.19,148.099c-0.694,11.154,0.182,22.393,0.515,33.546c0.058,1.943,0.114,3.889,0.075,5.833
						c-0.009,0.455,0.113,1.303-0.066,1.737c-0.046,0.111,0.136-0.101-0.437,0.174c-0.55,0.264-1.085,0.564-1.634,0.831
						c-2.239,1.092-4.527,2.079-6.792,3.117c-0.735,0.337-2.932,0.924-3.177,1.899c-0.288,1.142,1.751,2.97,2.368,3.737
						c1.915,2.38,3.896,4.721,5.987,6.95c-0.039-0.305-0.079-0.61-0.118-0.916c-7.12,9.606-15.216,18.359-23.036,27.386
						c-0.642,0.741,0.436,1.829,1.082,1.082c7.9-9.129,16.065-17.99,23.258-27.705c0.201-0.272,0.094-0.69-0.118-0.916
						c-1.695-1.805-3.307-3.69-4.887-5.597c-0.79-0.954-1.587-1.908-2.323-2.904c-0.154-0.209-0.366-0.669-0.58-0.809
						c-0.452-0.296-0.279,0.251-0.09,0.237c0.641-0.047,1.581-0.774,2.174-1.047c1.063-0.49,2.13-0.971,3.194-1.459
						c1.819-0.834,4.372-1.583,5.915-2.901c1.674-1.429,0.55-6.227,0.435-8.214c-0.314-5.448-0.683-10.892-0.997-16.34
						c-0.34-5.899-0.685-11.813-0.443-17.724C141.505,147.901,141.203,147.903,141.19,148.099L141.19,148.099z"/>
				</g>
			</g>
			<g>
				<g>
					<path style="fill:#00CBCD;" d="M115.176,219.569c-0.182,29.779,0.815,59.548,0.674,89.326
						c-0.033,6.897-0.119,13.797-0.451,20.687c-0.044,0.907,1.367,0.905,1.41,0c1.356-28.651,0.083-57.476-0.408-86.137
						c-0.136-7.957-0.386-15.918-0.441-23.876C115.955,219.066,115.179,219.065,115.176,219.569L115.176,219.569z"/>
				</g>
			</g>
		</g>
		<g>
			<g>
				<path style="fill:#094370;" d="M136.916,166.835l-1.538-0.431c1.398-4.984,2.893-18.785-2.325-23.297
					c-4.14-3.579-9.401-3.698-9.47-3.697l-0.046-1.596c0.318-0.009,5.814,0.022,10.527,4.057
					C140.778,147.619,138.357,161.697,136.916,166.835z"/>
			</g>
			<g>
				<path style="fill:#094370;" d="M127.098,214.34c-0.177-0.089-4.365-2.219-6.122-6.554c-1.897-4.676,5.931-26.092,7.675-30.11
					l1.464,0.636c-2.575,5.93-9.091,25.349-7.661,28.874c1.526,3.763,5.319,5.706,5.357,5.726L127.098,214.34z"/>
			</g>
			<g>
				<path style="fill:#094370;" d="M137.706,215.414l-0.451-1.531l0.225,0.765l-0.227-0.765c0.041-0.012,4.134-1.279,5.72-5.3
					c1.581-4.007-0.749-21.524-2.941-28.453l1.523-0.482c2.076,6.567,4.783,24.753,2.903,29.52
					C142.58,213.932,137.904,215.355,137.706,215.414z"/>
			</g>
			<g>
				<path style="fill:#094370;" d="M129.104,216.221c-0.369,0.02-0.747-0.062-1.092-0.258l-3.861-2.195
					c-0.958-0.544-1.293-1.763-0.748-2.721c0.545-0.959,1.763-1.293,2.721-0.748l3.861,2.195c0.958,0.544,1.293,1.763,0.748,2.721
					C130.384,215.828,129.759,216.186,129.104,216.221z"/>
			</g>
			<g>
				<path style="fill:#094370;" d="M135.055,217.228c-0.834,0.045-1.639-0.441-1.963-1.26c-0.405-1.025,0.097-2.184,1.122-2.59
					l5.54-2.191c1.027-0.405,2.184,0.098,2.59,1.122c0.405,1.025-0.097,2.184-1.122,2.59l-5.54,2.191
					C135.476,217.172,135.264,217.217,135.055,217.228z"/>
			</g>
			<path style="fill:#094370;" d="M138.668,168.512l0.958-8.411c0.073-0.635-0.107-1.261-0.505-1.761
				c-0.398-0.501-0.967-0.816-1.604-0.889c-1.316-0.143-2.499,0.801-2.649,2.109l-0.952,8.355c-2.64,1.062-6.314,4.684-9.065,15.804
				c-0.316,1.281,0.469,2.581,1.75,2.899c0.619,0.152,1.262,0.058,1.811-0.274c0.548-0.331,0.934-0.855,1.088-1.475
				c1.927-7.774,5.087-12.707,6.279-12.58c1.124,0.315,3.241,6.876,4.017,13.801c0.141,1.259,1.242,2.193,2.507,2.125
				c0.046-0.002,0.093-0.007,0.138-0.012c0.636-0.071,1.206-0.385,1.606-0.885c0.399-0.499,0.58-1.124,0.509-1.76
				C143.945,180.082,142.405,171.428,138.668,168.512z"/>
		</g>
		<g>
			<circle style="fill:#094370;" cx="85.303" cy="190.991" r="5.477"/>
			<circle style="fill:#C2C7F9;" cx="85.302" cy="190.967" r="2.949"/>
			<g>
				<path style="fill:#094370;" d="M83.478,187.038c-0.231-0.709-4.699-21.086,1.332-34.669c4.046-9.115,9.456-14.837,16.297-15.348
					l-0.163,1.587c-6.596,0.924-10.825,5.737-14.675,14.409c-5.778,13.015-1.327,33.36-1.273,33.528L83.478,187.038z"/>
			</g>
		</g>
	</g>
	<g>
		<g>
			
				<ellipse transform="matrix(0.0419 -0.9991 0.9991 0.0419 10.6165 376.0029)" style="fill:#094370;" cx="201.357" cy="182.466" rx="17.754" ry="20.459"/>
			<g>
				<path style="fill:#094370;" d="M180.401,107.874c9.527-6.42,22.351-9.198,33.649-7.118
					c23.377,4.305,32.916,27.494,27.495,51.715c-2.284,10.203-4.816,29.878-34.242,29.878c-11.773,0-27.805-7.253-34.756-17.559
					C162.125,149.338,163.381,119.342,180.401,107.874z"/>
			</g>
			<g>
				<path style="fill:#FFC5B6;" d="M214.675,175.328c-0.184,2.589-0.683,13.347,0.111,14.266c0.727,0.842,8.772,1.956,11.65,2.276
					c-0.993,4.824-2.243,9.665-4.648,13.963c-2.405,4.298-6.095,8.049-10.752,9.652c-0.257,0.088-0.524,0.171-0.794,0.15
					c-0.31-0.024-0.591-0.181-0.86-0.337c-9.396-5.449-17.023-13.292-21.491-23.192c1.147-0.05,7.728-0.792,8.492-2.426
					c0.899-1.924,1.501-10.649,0.813-14.342L214.675,175.328z"/>
			</g>
			<g style="opacity:0.3;">
				<path style="fill:#F26666;" d="M197,187.037c0.505-3.447,0.705-8.958,0.195-11.699l17.48-0.01
					c-0.147,2.064-0.493,9.32-0.225,12.642C208.598,189.304,202.659,188.749,197,187.037z"/>
			</g>
			<g>
				<path style="fill:#FFC5B6;" d="M234.534,145.811c0.272-0.45,0.556-0.897,0.902-1.293c1.111-1.274,2.882-1.937,4.557-1.707
					c1.674,0.23,3.201,1.346,3.928,2.872c0.23,0.483,0.383,0.998,0.499,1.52c0.974,4.381-0.792,9.149-4.091,12.192
					c-1.239,1.143-2.763,2.096-4.446,2.186c-0.729,0.039-1.494-0.1-2.078-0.538c-0.54-0.404-0.879-1.023-1.125-1.651
					C231.798,157.146,231.494,150.84,234.534,145.811z"/>
			</g>
			<g>
				<g style="opacity:0.1;">
					<path style="fill:#F26666;" d="M234.534,145.811c0.272-0.45,0.556-0.897,0.902-1.293c1.111-1.274,2.882-1.937,4.557-1.707
						c1.674,0.23,3.201,1.346,3.928,2.872c0.23,0.483,0.383,0.998,0.499,1.52c0.974,4.381-0.792,9.149-4.091,12.192
						c-1.239,1.143-2.763,2.096-4.446,2.186c-0.729,0.039-1.494-0.1-2.078-0.538c-0.54-0.404-0.879-1.023-1.125-1.651
						C231.798,157.146,231.494,150.84,234.534,145.811z"/>
				</g>
				<g style="opacity:0.3;">
					<path style="fill:#F26666;" d="M242.139,147.494c1.679,1.434-0.234,8.501-2.862,10.926c-0.987,0.91-2.201,1.67-3.542,1.742
						c-0.581,0.031-1.19-0.08-1.656-0.429c-0.43-0.322-0.7-0.815-0.896-1.316C232.48,156.627,238.188,144.12,242.139,147.494z"/>
				</g>
				<g>
					<g>
						<path style="fill:#F26666;" d="M241.506,147.657c-4.415,1.246-6.46,5.874-6.289,10.101c0.016,0.399,0.634,0.402,0.622,0
							c-0.1-3.317,2.249-8.775,5.747-9.81C241.772,147.893,241.693,147.604,241.506,147.657L241.506,147.657z"/>
					</g>
				</g>
				<g>
					<g>
						<path style="fill:#F26666;" d="M237.067,152.706c0.792-0.717,1.481-0.084,1.477,0.869c-0.006,1.159-0.891,1.944-1.498,2.821
							c-0.169,0.245,0.149,0.466,0.368,0.368c1.403-0.631,2.303-2.821,1.697-4.239c-0.483-1.13-1.752-1.093-2.561-0.335
							C236.205,152.512,236.719,153.021,237.067,152.706L237.067,152.706z"/>
					</g>
				</g>
			</g>
			<g>
				<path style="fill:#FFC5B6;" d="M209.894,111.446c13.093-0.468,21.456,9.315,24.787,20.719c1.06,3.628,4.198,19.094,0.092,31.09
					c-3.236,9.452-11.739,17.263-26.739,17.263c-20.835,0-33.043-18.98-35.168-34.346
					C174.789,127.512,184.233,112.363,209.894,111.446z"/>
			</g>
			<g style="opacity:0.3;">
				<path style="fill:#F26666;" d="M210.425,123.298c-18.49,4.835-37.91,34.114-37.939,32.585
					c-0.436-22.846,7.409-43.365,37.408-44.436c13.093-0.468,21.456,9.315,24.787,20.719c0.955,3.268,1.697,12.588,2.127,17.552
					C232.304,139.201,216.964,127.428,210.425,123.298z"/>
			</g>
			<path style="opacity:0.3;fill:#F26666;" d="M212.167,154.262c-2.943-1.335-6.724-1.686-4.069,0.962
				c2.448,2.441,6.919,2.154,8.063-0.962C217.264,151.259,214.124,155.149,212.167,154.262z"/>
			<path style="opacity:0.5;fill:#FFFFFF;" d="M212.091,151.149c-1.014,0-2.308,0.978-1.303,1.981
				c0.927,0.925,2.391,0.647,2.824-0.533C214.03,151.459,212.905,151.149,212.091,151.149z"/>
			<g>
				<g>
					<path style="fill:#FFC5B6;" d="M177.626,148.703c-1.554-2.7-4.559-4.808-7.638-4.336c-1.197,0.183-2.332,0.746-3.203,1.587
						c-1.464,1.413-2.108,3.535-2.018,5.568s0.851,3.986,1.857,5.755c1.883,3.312,5.07,6.284,8.879,6.354
						c1.271,0.023,2.665-0.367,3.357-1.433c0.344-0.531,0.476-1.168,0.601-1.789C179.728,159.08,180.593,153.858,177.626,148.703z"
						/>
				</g>
				<path style="opacity:0.3;fill:#F26666;" d="M169.022,149.229c-2.677-0.016-0.947,6.807,1.573,9.582
					c2.499,2.752,5.861,3.697,5.46-0.995C175.655,153.124,172.375,149.249,169.022,149.229z"/>
				<g>
					<g>
						<path style="fill:#F26666;" d="M169.781,149.358c3.498,1.035,5.847,6.493,5.747,9.81c-0.012,0.401,0.606,0.399,0.622,0
							c0.171-4.229-1.873-8.855-6.289-10.101C169.674,149.014,169.595,149.303,169.781,149.358L169.781,149.358z"/>
					</g>
				</g>
				<g>
					<g>
						<path style="fill:#F26666;" d="M174.817,153.599c-0.81-0.759-2.075-0.793-2.561,0.335c-0.609,1.416,0.298,3.61,1.697,4.239
							c0.219,0.098,0.537-0.123,0.368-0.368c-0.607-0.877-1.492-1.663-1.498-2.821c-0.005-0.952,0.678-1.592,1.477-0.869
							C174.647,154.43,175.162,153.922,174.817,153.599L174.817,153.599z"/>
					</g>
				</g>
			</g>
			<g>
				<g>
					<path style="fill:#F26666;" d="M212.243,146.38c0.68,2.833,5.555,7.12,1.295,9.321c-0.413,0.214-0.124,0.848,0.311,0.737
						c1.83-0.47,2.747-2.193,2.521-4.018c-0.313-2.523-2.952-3.832-3.776-6.136C212.516,146.065,212.188,146.15,212.243,146.38
						L212.243,146.38z"/>
				</g>
			</g>
			<g>
				<g>
					<path style="fill:#F26666;" d="M217.563,160.649c-3.976,2.76-10.945,1.931-14.045-1.724c-0.25-0.294-0.774,0.102-0.541,0.417
						c3.503,4.732,10.278,5.149,14.809,1.69C218.008,160.863,217.802,160.483,217.563,160.649L217.563,160.649z"/>
				</g>
			</g>
			<path style="opacity:0.3;fill:#F26666;" d="M207.008,166.547c0,0.85,1.155,1.54,2.579,1.54s2.579-0.689,2.579-1.54
				c0-0.85-1.155-0.874-2.579-0.874S207.008,165.697,207.008,166.547z"/>
			<g>
				<g>
					<path style="fill:#094370;" d="M231.799,135.242c-2.586-3.359-7.332-4.972-11.236-2.902c-1.771,0.939-0.143,3.755,1.575,2.695
						c2.322-1.434,6.568-0.818,8.411,1.172C231.149,136.855,232.357,135.968,231.799,135.242L231.799,135.242z"/>
				</g>
			</g>
			<g>
				<g>
					<path style="fill:#094370;" d="M190.613,136.331c3.01-2.247,7.909-2.23,11.358-1.139c1.915,0.606,2.779-2.509,0.83-3.009
						c-4.643-1.192-9.512-0.276-13.152,2.899C188.977,135.666,189.884,136.875,190.613,136.331L190.613,136.331z"/>
				</g>
			</g>
			<ellipse style="opacity:0.3;fill:#F26666;" cx="228.618" cy="159.592" rx="6.451" ry="4.608"/>
			<ellipse style="opacity:0.5;fill:#FFFFFF;" cx="229.539" cy="157.749" rx="2.765" ry="1.843"/>
			<ellipse style="opacity:0.3;fill:#F26666;" cx="193.282" cy="159.67" rx="6.451" ry="4.608"/>
			<g>
				<g>
					<path style="fill:#F26666;" d="M210.7,155.648c-0.41-0.762-1.011-1.282-1.84-1.54c-0.837-0.261-0.981,1.215-0.154,1.134
						c0.597-0.058,1.19,0.164,1.533,0.675C210.43,156.2,210.863,155.953,210.7,155.648L210.7,155.648z"/>
				</g>
			</g>
			<g>
				<path style="fill:#00D0D6;" d="M231.796,110.707c0,0-3.621-15.087-6.035-18.708c-2.414-3.621-19.312-6.638-22.933-6.638
					c-3.621,0-21.726,7.845-23.536,10.259c-1.81,2.414-2.414,18.105-2.414,18.105s14.203-6.121,26.112-6.078
					C214.898,107.69,231.796,110.707,231.796,110.707z"/>
			</g>
			<path style="opacity:0.2;fill:#274470;" d="M225.761,91.999c-0.65-0.975-2.354-1.905-4.561-2.745
				c3.885,4.471,6.373,9.908,2.829,11.326c-11,5-24-5-38,4c-2.106,1.404-6.671,1.819-8.516-0.131
				c-0.455,4.627-0.635,9.276-0.635,9.276s14.203-6.121,26.112-6.078s28.807,3.061,28.807,3.061S228.175,95.62,225.761,91.999z"/>
			<g>
				<path style="fill:#094370;" d="M236.808,149.718c-2.127-17.552-21.156-29.34-27.221-30.137
					c-23.426,6.958-31.782,21.631-31.127,40.827c-1.644-1.71-4.185-9.558-4.687-11.876c-1.596-7.368-2.757-14.963-1.018-22.299
					c2.333-9.841,8.586-21.312,32.083-22.073c11.342-0.367,24.291,1.287,29.45,14.03
					C238.403,128.353,236.808,149.718,236.808,149.718z"/>
			</g>
			<g>
				<g style="opacity:0.25;">
					<g>
						<path style="fill:#FFFFFF;" d="M184.275,116.296c-9.074,7.654-12.618,20.463-10.233,31.958
							c0.073,0.352,0.661,0.279,0.633-0.086c-0.865-11.255,1.054-23.688,9.794-31.677
							C184.603,116.37,184.409,116.183,184.275,116.296L184.275,116.296z"/>
					</g>
				</g>
				<g style="opacity:0.25;">
					<g>
						<path style="fill:#FFFFFF;" d="M201.31,111.957c-7.579,2.333-15.001,7.659-18.874,14.71c-0.075,0.136,0.119,0.305,0.225,0.173
							c5.157-6.466,10.992-11.231,18.906-13.95C202.15,112.69,201.91,111.772,201.31,111.957L201.31,111.957z"/>
					</g>
				</g>
				<g style="opacity:0.25;">
					<g>
						<path style="fill:#FFFFFF;" d="M237.346,136.708c-0.168-6.086-3.742-13.388-8.232-17.483
							c-4.339-3.957-10.457-5.957-16.184-6.688c-0.249-0.032-0.306,0.392-0.059,0.439c5.715,1.097,11.029,3.123,15.324,7.168
							c4.488,4.226,7.582,10.645,8.839,16.607C237.072,136.926,237.351,136.886,237.346,136.708L237.346,136.708z"/>
					</g>
				</g>
				<g style="opacity:0.25;">
					<g>
						<path style="fill:#FFFFFF;" d="M172.802,121.526c-3.615,7.023-5.402,13.523-3.606,21.412c0.185,0.814,1.426,0.468,1.249-0.344
							c-1.608-7.385-0.529-14.115,2.622-20.913C173.149,121.505,172.894,121.348,172.802,121.526L172.802,121.526z"/>
					</g>
				</g>
			</g>
			<ellipse style="opacity:0.5;fill:#FFFFFF;" cx="193.282" cy="157.827" rx="2.765" ry="1.843"/>
			<path style="fill:#111F44;" d="M195.209,146.371c1.05-0.044,1.888,0.251,2.552,0.758c0.041-0.007,0.093,0.011,0.139,0.013
				c0.014-0.009,0.016-0.01,0.039-0.026c0.089-0.061,0.2-0.098,0.291-0.158c0.18-0.117,0.337-0.273,0.499-0.414
				c0.394-0.344,0.617-0.709,0.757-1.215c0.057-0.207,0.352-0.117,0.317,0.087c-0.105,0.614-0.202,1.368-0.513,1.915
				c-0.132,0.233-0.342,0.549-0.594,0.799c0.149,0.221,0.654,0.562,0.824,0.571c0.014-0.009,0.016-0.01,0.039-0.026
				c0.089-0.061,0.2-0.098,0.291-0.158c0.18-0.117,0.337-0.273,0.499-0.414c0.394-0.344,0.617-0.709,0.757-1.215
				c0.057-0.207,0.352-0.117,0.317,0.087c-0.105,0.614-0.202,1.368-0.513,1.915c-0.251,0.441-0.778,1.183-1.348,1.191
				c0.12,0.443,0.208,0.9,0.262,1.357c0.061,0.512-0.762,0.603-0.887,0.12c-0.47-1.808-1.832-4.108-4.092-3.28
				c-1.35,0.494-2.063,1.825-2.832,2.929c-0.219,0.315-0.684,0.194-0.712-0.193C191.14,148.794,192.903,146.468,195.209,146.371z"/>
			<g>
				<g>
					<g>
						<path style="fill:#111F44;" d="M230.822,146.957c-0.15,0.518-0.374,0.815-0.794,1.134c-0.297,0.226-0.551,0.486-0.939,0.548
							c0.154,0,0.309,0,0.463,0c-0.014-0.005-0.028-0.01-0.042-0.015c-1.16-0.415-1.579,1.699-0.233,1.724
							c0.674,0.013,1.217-0.778,1.504-1.31c0.301-0.557,0.345-1.351,0.442-1.97C231.264,146.81,230.898,146.694,230.822,146.957
							L230.822,146.957z"/>
					</g>
				</g>
				<g>
					<g>
						<g>
							<path style="fill:#111F44;" d="M229.203,145.397c-0.15,0.518-0.374,0.815-0.794,1.134c-0.297,0.226-0.551,0.486-0.939,0.548
								c0.154,0,0.309,0,0.463,0c-0.014-0.005-0.028-0.01-0.042-0.015c-1.16-0.415-1.579,1.699-0.233,1.724
								c0.674,0.013,1.217-0.778,1.504-1.31c0.301-0.557,0.345-1.351,0.442-1.97C229.645,145.249,229.279,145.133,229.203,145.397
								L229.203,145.397z"/>
						</g>
					</g>
					<g>
						<g>
							<path style="fill:#111F44;" d="M229.702,151.52c-0.29-2.765-1.734-5.588-4.965-5.276c-2.377,0.23-4.132,2.652-3.763,4.981
								c0.055,0.348,0.588,0.478,0.808,0.213c0.836-1.004,1.525-2.282,2.797-2.815c2.159-0.904,3.524,1.32,3.999,3.048
								C228.743,152.272,229.771,152.18,229.702,151.52L229.702,151.52z"/>
						</g>
					</g>
				</g>
			</g>
			<g style="opacity:0.65;">
				<g>
					
						<ellipse transform="matrix(0.9359 -0.3522 0.3522 0.9359 -21.3565 73.1944)" style="fill:#FFFFFF;" cx="190.498" cy="95.296" rx="5.76" ry="2.988"/>
				</g>
				<g>
					
						<ellipse transform="matrix(0.6962 -0.7178 0.7178 0.6962 -17.155 161.5302)" style="fill:#FFFFFF;" cx="182.273" cy="101.034" rx="2.704" ry="1.402"/>
				</g>
			</g>
		</g>
		<g>
			<g>
				<path style="fill:#FFC5B6;" d="M165.73,297.588c0,0-4.938,0.724-8.911,0.317c0,0-1.178,5.184-2.799,7.813
					c-1.621,2.629-3.028,11.249-2.111,12.931c0.917,1.681,2.598,0.765,2.598,0.765s0.306,1.27,1.122,1.531
					c1.386,0.442,2.333-0.797,2.333-0.797s0.395,2.321,2.106,2.261c1.712-0.061,2.204-1.557,2.204-1.557s1.175,1.277,3.196,0.397
					c1.571-0.684,1.217-6.885,1.217-6.885s0.668,7.143,4.147,6.184c0.027-3.024,0.184-6.966-0.335-9.416
					c-0.624-2.946-2.72-4.189-3.667-6.726C165.882,301.867,165.73,297.588,165.73,297.588z"/>
			</g>
			<g>
				<path style="opacity:0.3;fill:#F26666;" d="M166.028,312.58c-2,2,1,5,0,5c-4.742,1.897-10.381,2.883-14.363-2.139
					c-0.102,1.483-0.043,2.683,0.243,3.207c0.917,1.681,2.598,0.765,2.598,0.765s0.306,1.27,1.122,1.531
					c1.385,0.442,2.333-0.797,2.333-0.797s0.395,2.321,2.106,2.261c1.712-0.061,2.204-1.557,2.204-1.557s1.175,1.277,3.196,0.397
					c1.571-0.684,1.217-6.885,1.217-6.885s0.668,7.143,4.147,6.184c0.009-0.957,0.029-2.008,0.038-3.073
					C168.013,316.936,167.812,314.363,166.028,312.58z"/>
			</g>
			<g>
				<path style="opacity:0.3;fill:#F26666;" d="M166.829,304.405c-0.947-2.538-1.099-6.817-1.099-6.817s-4.938,0.724-8.911,0.317
					c0,0-1.178,5.184-2.799,7.813c-0.461,0.747-0.902,1.985-1.279,3.404c5.571-2.674,12.625-0.816,17.922,3.006
					c-0.046-0.352-0.1-0.686-0.166-0.996C169.872,308.185,167.777,306.942,166.829,304.405z"/>
			</g>
			<g>
				<g>
					<path style="fill:#FFC5B6;" d="M186.586,436.672c0,0-0.096,6.209-0.264,9.733c-0.168,3.524,1.343,13.425,0,17.788
						s-7.719,9.733-10.069,9.565s-5.706-7.552-3.692-14.432s5.738-11.02,4.786-22.655H186.586z"/>
					<path style="opacity:0.3;fill:#F26666;" d="M186.322,446.405c0.168-3.524,0.264-9.733,0.264-9.733h-9.239
						c0.478,5.844-0.224,9.796-1.296,13.155c3.55-1.911,7.237-1.217,10.452,1.17C186.373,449.108,186.271,447.466,186.322,446.405z"
						/>
					<path style="fill:#1B2346;" d="M172.949,458.081c-0.136,0.416-0.267,0.831-0.388,1.246c-2.014,6.88,1.343,14.264,3.692,14.432
						c2.349,0.168,8.726-5.202,10.069-9.565c0.587-1.907,0.629-4.873,0.504-7.902C183.635,465.027,173.474,465.027,172.949,458.081z
						"/>
				</g>
				<g>
					<path style="fill:#FFC5B6;" d="M213.084,437.747c0,0,0.096,6.209,0.264,9.733c0.168,3.524-1.343,13.425,0,17.788
						s7.719,7.815,10.069,7.648c2.349-0.168,5.706-5.634,3.692-12.514c-2.014-6.88-5.119-11.407-4.786-22.655H213.084z"/>
					<path style="opacity:0.3;fill:#F26666;" d="M215.028,448.58c2.872-1.436,5.745-0.578,8.507,1.033
						c-0.821-3.154-1.362-6.836-1.213-11.866h-9.239c0,0,0.096,6.209,0.264,9.733c0.031,0.649,0.004,1.516-0.05,2.523
						C213.841,449.374,214.431,448.879,215.028,448.58z"/>
					<path style="fill:#1B2346;" d="M226.72,459.156c0.136,0.416,0.267,0.831,0.388,1.246c2.014,6.88-1.342,12.346-3.692,12.514
						c-2.349,0.168-8.726-3.284-10.069-7.648c-0.587-1.907-0.629-4.873-0.504-7.902C216.89,465.821,226.748,464.304,226.72,459.156z
						"/>
				</g>
				<path style="fill:#00ADC0;" d="M230.167,373.415c-3.239-17.921,9.817-43.195,10.138-56.249
					c0.535-21.74-2.989-30.913-2.989-30.913l-57.493-3.869c0,0-5.604,8.599-6.477,18.174c-0.475,7.885,0.283,15.871,1.665,24.167
					c3.436,15.808,6.554,31.612,1.375,46.736c-7.741,22.601-6.052,39.765-2.821,71.091c0,0,1.169,3,7.753,3
					c6.584,0,10.192-3,10.192-3c5.636-37.513,3.019-58.162,6.87-73.153c5.568-21.673,7.198-38.882,10.191-61.368
					c0.294,14.905,0.154,51.022,1.342,64.048c1.188,13.026-4.335,28.121-0.394,70.472c0,0,3.472,3,9.544,3s8.37-3,8.37-3
					S235.533,403.109,230.167,373.415z"/>
				<path style="opacity:0.2;fill:#274470;" d="M240.354,313.863c0.124-19.364-3.038-27.61-3.038-27.61l-57.493-3.869
					c0,0-5.604,8.599-6.477,18.174c-0.211,3.502-0.168,7.026,0.054,10.586c12.555-1.39,22.006-0.387,34.11,5.026
					c0.339-2.644,0.689-5.351,1.061-8.139c0.045,2.276,0.08,5.051,0.111,8.159C219.897,312.364,230.056,311.963,240.354,313.863z"/>
				<g>
					<g>
						<path style="fill:#00D0D6;" d="M275,245.127c-0.72-4.251-31.038-43.897-37.075-49.51c-3.806-3.538-17.195-4.447-17.195-4.447
							c-2.804,10.871-22.126,8.469-27.961-0.083c-5.161,0.992-18.566,2.079-23.161,7.287c-2.788,3.16-12.223,51.267-13.393,58.523
							c-0.501,3.105-3.216,37.158-4.509,45.184c5.362,1.249,12.236,2.383,17.728,1.529c0.903-2.853,3.777-44.863,3.777-44.863
							l5.927-30.929c0,0,4.007,28.035,3.367,30.006c-2.809,6.973-11.778,44.872-11.778,44.872
							c36.548,8.863,72.861-1.039,72.861-1.039c-1.561-9.914-8.994-36.865-9.777-42.787c-0.576-4.359,4.061-32.181,4.061-32.181
							c4.457,5.03,17.892,17.505,17.892,17.505s-4.087,8.358-7.759,13.411c1.955,3.456,4.222,6.723,6.906,9.641
							C264.991,261.433,275.946,250.711,275,245.127z"/>
					</g>
					<g>
						<polygon style="fill:#FFFFFF;" points="231.606,227.125 217.345,227.125 216.345,220.778 232.606,220.778 						"/>
					</g>
				</g>
				<g>
					<path style="opacity:0.2;fill:#274470;" d="M275,245.127c-0.033-0.195-0.148-0.488-0.3-0.825
						c-4.818,5.004-8.934,10.453-14.672,14.278c-1.791,1.791-6.775,1.973-7.801,0.557c-0.875,0.362-1.658,0.872-2.411,1.448
						c1.518,2.355,3.197,4.598,5.094,6.661C264.991,261.433,275.946,250.711,275,245.127z"/>
					<path style="opacity:0.2;fill:#274470;" d="M241.028,220.58c-5-1-3-14-5-10c-5,8,2,21-5,29c-6,8-5.469,2.391-14.469,3.391
						c-5,1-19.531,3.609-23.531,0.609c-8-5-3-16-6-23c0-1-2,2-3,4c-7-3,0-14-3-12c-15,10-2,37-22,45c0,1,0,4,0,4
						c15,2,9.095,21.947,7.131,34.906c-4.783-0.683-10.828-4.541-12.833-8.889c-0.609,6.302-1.193,11.825-1.622,14.485
						c5.362,1.249,12.236,2.383,17.728,1.529c0.903-2.853,3.777-44.863,3.777-44.863l5.927-30.929c0,0,4.007,28.035,3.367,30.006
						c-2.809,6.973-11.778,44.872-11.778,44.872c1.935,0.469,3.869,0.875,5.798,1.244c6.306-10.296,10.971-37.376,14.662-43.285
						s31.005-7.451,34.461-5.306c7.156,4.44,9.58,29.539,13.514,47.343c2.83-0.601,4.426-1.034,4.426-1.034
						c-1.561-9.914-8.994-36.865-9.777-42.787c-0.576-4.359,4.061-32.181,4.061-32.181c4.457,5.03,17.892,17.505,17.892,17.505
						s-0.094,0.191-0.251,0.505c1.866,0.154,3.837,0.449,5.767,0.822c0.58-0.33,1.164-0.648,1.75-0.941
						C256.028,236.58,251.028,224.58,241.028,220.58z"/>
				</g>
				<g>
					<polygon style="fill:#1B2346;" points="181.509,231.026 190.677,302.055 239.287,295.265 229.453,223.952 					"/>
					<g>
						<polygon style="fill:#3EF2F4;" points="195.833,244.1 218.485,240.895 220.692,256.332 197.664,259.502 						"/>
					</g>
				</g>
				<g>
					<path style="fill:#FFC5B6;" d="M248.572,258.588c-2.263,2.652-5.084,2.945-5.532,3.164c-0.741,0.363-5.448-1.883-8.768-2.856
						c0.192,1.705,0.566,4.107,0.566,4.107c0.172,0.282,0.931,0.335,0.931,0.335s-13.654,3.268-12.516,5.38
						c0.581,1.079,10.038-1.507,10.308-0.957c0.27,0.55-10.341,5.067-8.982,6.448c1.359,1.381,9.779-3.427,9.499-2.607
						c-0.281,0.82-8.814,5.806-7.342,7.009c1.342,1.097,9.24-4.528,9.51-3.977c0.27,0.55-5.411,5.38-4.321,6.211
						c1.089,0.831,5.502-2.696,6.883-4.055c2.211-0.475,5.663-1.837,7.973-3.224c0.632-0.38,1.961-2.243,7.543-6.972
						C251.556,263.226,250.848,261.566,248.572,258.588z"/>
					<path style="opacity:0.3;fill:#F26666;" d="M248.572,258.588c-0.218,0.256-0.445,0.472-0.671,0.686
						c1.784,2.742,3.903,6.003,3.343,7.972c-3.329,4.599-13.537,8.095-19.379,12.966c-0.102,0.281-0.106,0.507,0.059,0.633
						c1.089,0.831,5.502-2.696,6.883-4.055c2.211-0.475,5.663-1.837,7.973-3.224c0.632-0.38,1.961-2.243,7.543-6.972
						C251.556,263.226,250.848,261.566,248.572,258.588z"/>
					<path style="opacity:0.3;fill:#F26666;" d="M226.594,278.09c0.897,0.959,6.377-3.053,9.751-4.996
						c0.551,0.833-0.078,1.583-0.099,1.539c-0.27-0.55-8.168,5.074-9.51,3.977C226.576,278.479,226.54,278.301,226.594,278.09z"/>
					<path style="opacity:0.3;fill:#F26666;" d="M233.915,266.594c0.23,0.762-0.043,1.05-0.787,1.097
						c-1.748,0.058-8.386,1.736-9.681,1.18C226.869,268.212,230.754,267.376,233.915,266.594z"/>
					<path style="opacity:0.3;fill:#F26666;" d="M224.476,274.008c3.218-0.973,6.387-2.366,9.34-4.068
						c1.087,0.269,0.437,0.916,0.097,1.575c-1.174,0.17-8.111,3.937-9.334,2.694C224.52,274.148,224.491,274.08,224.476,274.008z"/>
				</g>
				<g style="opacity:0.5;">
					<g>
						<g>
							<path style="fill:#274470;" d="M180.003,211.327c0.341,5.23,0.305,10.254-0.776,15.406c-0.134,0.641,0.828,0.917,0.988,0.272
								c1.273-5.129,0.534-10.497,0.004-15.678C180.205,211.191,179.993,211.186,180.003,211.327L180.003,211.327z"/>
						</g>
					</g>
					<g>
						<g>
							<path style="fill:#274470;" d="M182.707,213.406c-0.023,4.521-1.569,8.23-2.978,12.419c-0.157,0.467,0.531,0.729,0.777,0.328
								c2.288-3.735,2.615-8.475,2.528-12.747C183.031,213.196,182.709,213.195,182.707,213.406L182.707,213.406z"/>
						</g>
					</g>
					<g>
						<g>
							<path style="fill:#274470;" d="M235.178,210.528c1.151,3.507,2.214,7.218,1.998,10.943c-0.27,4.667-1.568,9.365-1.52,14.023
								c0.006,0.542,0.735,0.602,0.909,0.123c0.767-2.113,0.962-4.423,1.244-6.646c0.324-2.559,0.743-5.217,0.722-7.8
								c-0.03-3.685-1.751-7.343-3.023-10.735C235.432,210.235,235.109,210.316,235.178,210.528L235.178,210.528z"/>
						</g>
					</g>
					<g>
						<g>
							<path style="fill:#274470;" d="M238.884,214.503c0.407,4.285-0.968,7.767-2.171,11.76c-0.167,0.553,0.614,0.853,0.911,0.384
								c2.226-3.52,2.151-8.227,1.575-12.186C239.173,214.283,238.867,214.323,238.884,214.503L238.884,214.503z"/>
						</g>
					</g>
					<g>
						<g>
							<path style="fill:#274470;" d="M160.112,259.195c2.337-0.854,4.625-1.689,7.111-1.978c1.174-0.136,2.464-0.317,3.482,0.475
								c0.555,0.432,0.867,1.047,1.481,1.438c0.272,0.173,0.54-0.159,0.414-0.414c-1.029-2.082-2.165-3.009-4.531-2.98
								c-2.961,0.035-5.829,1.019-8.341,2.548C159.264,258.567,159.563,259.396,160.112,259.195L160.112,259.195z"/>
						</g>
					</g>
					<g>
						<g>
							<path style="fill:#274470;" d="M165.839,255.54c1.1-0.379,2.337-0.658,3.49-0.362c1.842,0.474,2.168,2.212,2.495,3.834
								c0.118,0.583,1.099,0.461,1.049-0.142c-0.15-1.813-1.088-3.707-2.932-4.273c-1.419-0.436-2.95-0.012-4.264,0.559
								C165.46,255.25,165.615,255.617,165.839,255.54L165.839,255.54z"/>
						</g>
					</g>
				</g>
			</g>
			<g style="opacity:0.65;">
				<g>
					
						<ellipse transform="matrix(0.9359 -0.3522 0.3522 0.9359 -58.3717 76.028)" style="fill:#FFFFFF;" cx="179.779" cy="198.45" rx="4.946" ry="2.566"/>
				</g>
				<g>
					
						<ellipse transform="matrix(0.6962 -0.7178 0.7178 0.6962 -93.5224 185.7584)" style="fill:#FFFFFF;" cx="172.716" cy="203.378" rx="2.322" ry="1.204"/>
				</g>
			</g>
			<g>
				<polygon style="fill:#FFFFFF;" points="259.14,229.261 244.879,229.261 243.879,222.914 260.14,222.914 				"/>
			</g>
		</g>
	</g>
	<g>
		<path style="fill:#1B2346;" d="M352.434,468.222c3.616,3.847,10.816,3.847,18.75,1.202c5.839-1.947,13.179-11.504,13.179-11.504
			s0.515-5.666-2.061-12.02h-20.09c0,0,0.075,4.659-3.943,8.4C353.691,458.564,349.031,464.601,352.434,468.222z"/>
		<path style="fill:#1B2346;" d="M436.388,468.222c-3.616,3.847-10.816,3.847-18.75,1.202c-5.839-1.947-13.179-11.504-13.179-11.504
			s-0.515-5.666,2.061-12.02h20.09c0,0-0.075,4.659,3.943,8.4C435.131,458.564,439.79,464.601,436.388,468.222z"/>
		<polygon style="fill:#00ADC0;" points="357.148,304.495 358.735,448.609 385.581,448.609 395.285,318.036 402.771,448.609 
			429.678,448.609 434.424,300.389 		"/>
		<path style="opacity:0.2;fill:#274470;" d="M357.148,304.495l0.235,21.294c4.307-2.693,9.049-4.254,14.231-2.311
			c7.959,2.533,15.509,3.834,22.958,4.167l0.714-9.608l0.553,9.64c11.855,0.356,23.502-1.698,36.186-5.157
			c0.553-0.276,1.128-0.551,1.717-0.813l0.683-21.316L357.148,304.495z"/>
		<g>
			<g>
				<g>
					<path style="fill:#F0C3B3;" d="M410.038,148.577c-0.187,2.628-0.693,13.549,0.113,14.482c0.738,0.855,8.905,3.752,11.826,4.076
						c-1.008,4.897-13.261,20.579-17.988,22.207c-0.261,0.09-0.532,0.174-0.806,0.152c-0.314-0.025-0.6-0.184-0.873-0.342
						c-9.538-5.532-19.636-13.493-24.171-23.543c1.164-0.05,7.845-0.804,8.62-2.463c0.913-1.953,1.524-10.811,0.826-14.559
						L410.038,148.577z"/>
				</g>
				<g style="opacity:0.3;">
					<path style="fill:#D66563;" d="M387.222,161.406c0.778-4.073,0.832-10.293,0.362-12.82l22.454-0.01
						c-0.149,2.096-0.805,10.815-0.057,14.064C403.508,165.874,392.808,163.557,387.222,161.406z"/>
				</g>
			</g>
			<g>
				<g>
					<path style="fill:#F0C3B3;" d="M428.754,117.676c0.276-0.457,0.564-0.91,0.916-1.313c1.128-1.293,2.926-1.966,4.626-1.733
						c1.7,0.233,3.25,1.367,3.987,2.916c0.233,0.49,0.389,1.014,0.506,1.543c0.988,4.448-0.804,9.288-4.153,12.377
						c-1.258,1.16-2.805,2.128-4.513,2.219c-0.74,0.039-1.516-0.102-2.11-0.546c-0.548-0.41-0.892-1.038-1.142-1.676
						C425.977,129.183,425.669,122.781,428.754,117.676z"/>
				</g>
				<g style="opacity:0.3;">
					<path style="fill:#D66563;" d="M436.474,119.384c1.705,1.456-0.237,8.63-2.906,11.091c-1.002,0.924-2.235,1.696-3.596,1.768
						c-0.59,0.031-1.208-0.081-1.681-0.435c-0.437-0.327-0.711-0.827-0.91-1.335C426.669,128.656,432.464,115.96,436.474,119.384z"
						/>
				</g>
				<g>
					<g>
						<path style="fill:#D66563;" d="M435.832,119.55c-4.471,1.261-6.54,5.977-6.375,10.254c0.015,0.393,0.625,0.395,0.613,0
							c-0.108-3.381,2.28-8.904,5.843-9.959C436.102,119.79,436.022,119.496,435.832,119.55L435.832,119.55z"/>
					</g>
				</g>
				<g>
					<g>
						<path style="fill:#D66563;" d="M431.315,124.665c0.734-0.664,1.432-0.232,1.508,0.713c0.097,1.203-0.79,2.116-1.477,2.988
							c-0.185,0.235,0.04,0.581,0.331,0.428c1.381-0.724,2.342-2.815,1.71-4.296c-0.485-1.139-1.763-1.1-2.577-0.337
							C430.475,124.476,430.976,124.972,431.315,124.665L431.315,124.665z"/>
					</g>
				</g>
			</g>
			<g>
				<path style="fill:#F0C3B3;" d="M370.153,127.9c0.061,3.178,3.194,25.59,23.725,29.503c10.503,2.002,22.615-0.865,29.982-10.474
					c9.124-11.9,7.507-41.45,6.077-46.345c-3.382-11.577-13.815-18.268-27.107-17.793C372.377,83.879,369.71,104.708,370.153,127.9z
					"/>
			</g>
			<g>
				<path style="fill:#FFFFFF;" d="M412.196,135.896c-4.94,1.878-10.572,1.989-16.866,0.198c0,0,1.567,5.006,7.953,5.614
					C409.67,142.317,412.196,135.896,412.196,135.896z"/>
			</g>
			<g>
				<g>
					<path style="fill:#D66563;" d="M412.136,135.68c-5.469,1.917-11.152,1.356-16.652-0.143c-0.409-0.112-0.852,0.286-0.712,0.712
						c1.274,3.882,5.588,6.167,9.501,6.007c3.726-0.152,6.878-2.901,8.246-6.27c0.162-0.399-0.486-0.573-0.646-0.178
						c-1.245,3.066-4.254,5.417-7.599,5.421c-3.338,0.003-7.269-1.921-8.385-5.288c-0.237,0.237-0.475,0.475-0.712,0.712
						c5.753,1.549,11.464,1.533,17.079-0.539C412.524,136.014,412.412,135.583,412.136,135.68z"/>
				</g>
			</g>
			<path style="opacity:0.3;fill:#D66563;" d="M399.469,145.576c0,1.332,1.808,1.822,4.039,1.822c2.231,0,4.039-0.491,4.039-1.822
				c0-1.332-1.808-1.369-4.039-1.369C401.278,144.207,399.469,144.244,399.469,145.576z"/>
			<g>
				<path style="fill:#1B2346;" d="M381.709,111.766c3.639-0.97,8.29-1.531,11.738-1.049c3.557,0.497,4.423-4.508,0.857-4.69
					c-5.351-0.273-9.467,0.664-13.769,3.108C379.145,109.925,380.156,112.408,381.709,111.766L381.709,111.766z"/>
			</g>
			<g>
				<path style="fill:#1B2346;" d="M425.7,110.916c-3.675-0.826-8.344-1.203-11.77-0.585c-3.534,0.637-4.597-4.33-1.041-4.652
					c5.336-0.483,9.486,0.291,13.88,2.563C428.19,108.976,427.278,111.497,425.7,110.916L425.7,110.916z"/>
			</g>
			<ellipse style="opacity:0.3;fill:#D66563;" cx="421.321" cy="131.012" rx="4.662" ry="3.33"/>
			<ellipse style="opacity:0.3;fill:#D66563;" cx="382.868" cy="131.235" rx="4.662" ry="3.33"/>
			<g>
				<path style="opacity:0.3;fill:#D66563;" d="M405.621,127.905c-3.426-1.55-7.309-0.711-4.615,1.977
					c2.485,2.478,6.408,1.734,7.569-1.429C409.695,125.404,407.609,128.805,405.621,127.905z"/>
				<path style="opacity:0.5;fill:#FFFFFF;" d="M405.649,125.069c-1.029,0-2.343,0.993-1.323,2.011
					c0.941,0.939,2.427,0.657,2.867-0.541C407.617,125.384,406.475,125.069,405.649,125.069z"/>
				<g>
					<g>
						<path style="fill:#D66563;" d="M405.465,118.405c0.633,3.064,4.939,9.949,1.071,11.974c-0.396,0.207-0.124,0.852,0.304,0.722
							c5.877-1.792-0.076-9.627-1.02-12.794C405.752,118.078,405.417,118.173,405.465,118.405L405.465,118.405z"/>
					</g>
				</g>
				<g>
					<g>
						<path style="fill:#D66563;" d="M403.648,130.313c-0.409-0.762-1.048-1.293-1.871-1.55c-0.828-0.258-0.971,1.204-0.152,1.123
							c0.623-0.061,1.201,0.171,1.557,0.699C403.374,130.873,403.814,130.622,403.648,130.313L403.648,130.313z"/>
					</g>
				</g>
			</g>
			<path style="fill:#1B2346;" d="M360.262,88.777c7.231-3.491,9.851-9.52,17.876-9.895c9.084-17.101,27.573-16.984,40.665-7.94
				c7.008,4.842,14.004,21.896,20.257,23.664c-1.501,2.209-3.188,4.359-6.399,4.217c1.058,9.12-0.283,15.762-0.283,15.762
				c-0.339,4.174-1.197,11.493-2.106,7.696c-1.1-4.594-0.961-14.853-2.372-23.04c-15.704,0.553-33.572-2.62-48.024-2.62
				c-0.719,9.607-4.36,13.312-3.721,33.829c-1.669-1.735-11.514-7.657-12.024-10.01C362.512,112.959,360.262,99.045,360.262,88.777z
				"/>
			<g style="opacity:0.5;">
				<g style="opacity:0.65;">
					
						<ellipse transform="matrix(0.9359 -0.3522 0.3522 0.9359 -2.1083 142.7612)" style="fill:#FFFFFF;" cx="391.329" cy="77.175" rx="7.655" ry="3.971"/>
				</g>
				<g style="opacity:0.65;">
					
						<ellipse transform="matrix(0.8806 -0.4739 0.4739 0.8806 4.1484 187.4773)" style="fill:#FFFFFF;" cx="374.058" cy="85.508" rx="3.593" ry="1.864"/>
				</g>
			</g>
			<g>
				<g>
					<path style="fill:#F0C3B3;" d="M372.324,120.612c-1.578-2.74-4.628-4.881-7.754-4.401c-1.215,0.186-2.367,0.757-3.251,1.611
						c-1.486,1.435-2.14,3.589-2.049,5.653c0.092,2.064,0.864,4.047,1.885,5.842c1.912,3.362,5.147,6.379,9.013,6.45
						c1.29,0.024,2.706-0.372,3.408-1.455c0.35-0.539,0.483-1.186,0.61-1.816C374.458,131.145,375.336,125.844,372.324,120.612z"/>
				</g>
				<path style="opacity:0.3;fill:#D66563;" d="M363.59,121.145c-2.717-0.016-0.961,6.91,1.597,9.728
					c2.537,2.793,5.95,3.753,5.543-1.01C370.323,125.1,366.993,121.166,363.59,121.145z"/>
				<g>
					<g>
						<path style="fill:#D66563;" d="M364.36,121.277c3.564,1.054,5.951,6.577,5.843,9.959c-0.013,0.395,0.597,0.393,0.613,0
							c0.166-4.278-1.902-8.992-6.375-10.254C364.251,120.928,364.171,121.221,364.36,121.277L364.36,121.277z"/>
					</g>
				</g>
				<g>
					<g>
						<path style="fill:#D66563;" d="M369.462,125.592c-0.816-0.764-2.089-0.8-2.577,0.337c-0.635,1.479,0.333,3.575,1.71,4.296
							c0.289,0.151,0.517-0.191,0.331-0.428c-0.687-0.872-1.573-1.784-1.477-2.988c0.075-0.936,0.769-1.382,1.508-0.713
							C369.297,126.403,369.799,125.908,369.462,125.592L369.462,125.592z"/>
					</g>
				</g>
			</g>
			<g>
				<ellipse style="fill:#1B2346;" cx="418.803" cy="121.462" rx="2.144" ry="3.982"/>
				<circle style="opacity:0.5;fill:#FFFFFF;" cx="418.835" cy="119.214" r="0.856"/>
			</g>
			<g>
				<ellipse style="fill:#1B2346;" cx="388.515" cy="122.338" rx="2.144" ry="3.982"/>
				<circle style="opacity:0.5;fill:#FFFFFF;" cx="388.547" cy="120.09" r="0.856"/>
			</g>
		</g>
		<g>
			<path style="fill:#FFFFFF;" d="M437.443,171.975c-9.334-2.938-23.749-7.487-23.749-7.487
				c-3.717,11.846-20.957,12.162-29.719-0.273c-4.281,1.242-14.118,4.211-22.858,7.404c9.522,33.522,18.054,67.976,42.569,93.366
				C417.825,235.137,428.324,204.136,437.443,171.975z"/>
		</g>
		<g>
			<path style="fill:#18D4DE;" d="M447.727,177.834c-4.264-4.072-25.336-10.796-29.94-12.21
				c-0.539,3.729-6.549,22.269-18.318,35.362c-13.164-13.093-19.018-31.199-19.895-36.134c-9.666,2.203-27.38,7.621-31.442,13.504
				c-9.507,13.768-12.571,84.734-7.465,88.514c1.239,0.917,11.41,0.123,15.994-1.175l-1.752,43.656
				c32.776,15.622,80.964,1.239,80.964,1.239c-0.139-9.623,0.512-25.24,1.06-39.898c1.142,0.097,10.288,1.834,14.005-0.783
				C460.656,263.068,458.006,187.651,447.727,177.834z"/>
		</g>
		<path style="opacity:0.15;fill:#274470;" d="M440,247c1-9,0.515-19.542,4.114-29.365c-1,0-3.296,2.661-5.188,6.98
			c-4-9-0.416-19.512-4.416-28.512C432.301,200.337,438,217,434,227c0,1-3-1-5-1c-12-2-25,0-37,1c-9,2-20,0-27-5
			c-3-1,0.213-13.033-2.787-19.033c-2.99,2.437-0.452,16.711-4.452,20.711c-2-4-2.573-8.404-3.573-12.404
			c-1.996,11.313,1.418,20.092-4.994,27.576c4.531-1.326,7.29-2.384,9.491-2.384c11.146-1.238,24.562-4.113,37.459-5.984
			c17.197-2.495,32.357-0.802,41.097,14.714C437.824,246.229,439.486,245.826,440,247z"/>
		<path style="opacity:0.15;fill:#274470;" d="M405,267c10.263,2.701,20.82,6.858,31.667,10.743c0.089-2.356,0.179-4.715,0.266-7.05
			c1.142,0.097,10.288,1.834,14.005-0.783c6.747-4.75,7.531-42.54,3.942-68.496c-1.15,6.118-2.458,12.263-2.88,18.586c0,4,1,8,1,11
			c1,10-2,26-8,27c-22,4-44-12-66-22c-5-3-5,4-7,6c3,3,7.99,4.183,11.99,6.183c-12,3-27.99,9.817-39.99,6.817
			c-3.26-1.397-4.778-4.538-5.78-8.295c0.019,10.877,0.815,18.956,2.447,20.164c1.239,0.917,11.41,0.123,15.994-1.175l-0.571,14.235
			C369.262,266.71,389.202,262.011,405,267z"/>
		<g>
			<polygon style="fill:#FFFFFF;" points="429.853,219.846 411.639,219.846 410.362,213.498 431.13,213.498 			"/>
		</g>
		<g>
			<path style="fill:#18D4DE;" d="M365.812,219.357c0.028-0.13,0.047-0.262,0.047-0.401
				C365.845,219.089,365.828,219.224,365.812,219.357z"/>
		</g>
		<g style="opacity:0.65;">
			<g>
				
					<ellipse transform="matrix(0.9359 -0.3522 0.3522 0.9359 -40.3005 138.5162)" style="fill:#FFFFFF;" cx="360.565" cy="180.025" rx="6.695" ry="3.472"/>
			</g>
			<g>
				
					<ellipse transform="matrix(0.6962 -0.7178 0.7178 0.6962 -27.3878 308.6698)" style="fill:#FFFFFF;" cx="351.005" cy="186.694" rx="3.143" ry="1.63"/>
			</g>
		</g>
		<g style="opacity:0.25;">
			<g>
				<g>
					<path style="fill:#094370;" d="M434.268,201.053c1.335,7.32,1.671,14.904,2.036,22.323c0.196,3.984,0.334,7.971,0.393,11.96
						c0.048,3.254-0.317,6.624-0.085,9.86c0.048,0.664,1.087,0.906,1.236,0.167c0.602-2.986,0.257-6.386,0.188-9.413
						c-0.098-4.31-0.342-8.619-0.657-12.918c-0.542-7.392-1.196-14.83-2.626-22.112C434.689,200.601,434.21,200.737,434.268,201.053
						L434.268,201.053z"/>
				</g>
			</g>
			<g>
				<g>
					<path style="fill:#094370;" d="M440.453,204.484c-1.26,6.671-2.618,13.323-4.023,19.964c-0.167,0.788,1.052,1.121,1.206,0.333
						c1.309-6.677,2.474-13.377,3.546-20.096C441.258,204.213,440.545,204.001,440.453,204.484L440.453,204.484z"/>
				</g>
			</g>
			<g>
				<g>
					<path style="fill:#094370;" d="M359.812,209.92c-1.104,8.129-2.616,16.409-2.989,24.607c-0.033,0.731,1.158,0.913,1.295,0.175
						c1.497-8.06,1.641-16.586,1.849-24.762C359.969,209.855,359.824,209.831,359.812,209.92L359.812,209.92z"/>
				</g>
			</g>
			<g>
				<g>
					<path style="fill:#094370;" d="M356.054,213.676c0.336,4.831-1.489,11.227,1.24,15.583c0.322,0.514,1.034,0.165,0.938-0.395
						c-0.479-2.8-1.091-5.389-1.206-8.257c-0.094-2.344-0.23-4.661-0.582-6.983C356.411,213.403,356.039,213.453,356.054,213.676
						L356.054,213.676z"/>
				</g>
			</g>
			<g>
				<g>
					<path style="fill:#094370;" d="M344.14,246.395c3.232-2.856,6.4-5.288,10.473-6.791c0.651-0.24,0.403-1.228-0.291-1.055
						c-4.248,1.063-7.593,4.441-10.619,7.409C343.417,246.24,343.844,246.657,344.14,246.395L344.14,246.395z"/>
				</g>
			</g>
			<g>
				<g>
					<path style="fill:#094370;" d="M346.319,256.812c1.551-6.724,4.971-11.893,9.682-16.802c0.502-0.523-0.238-1.216-0.779-0.779
						c-5.216,4.21-8.408,10.926-9.385,17.448C345.79,256.988,346.245,257.133,346.319,256.812L346.319,256.812z"/>
				</g>
			</g>
			<g>
				<g>
					<path style="fill:#094370;" d="M348.273,239.054c2.037-0.628,4.936-1.349,6.299,0.871c0.381,0.62,1.379-0.001,0.958-0.56
						c-1.885-2.501-4.865-1.62-7.336-0.597C348.023,238.839,348.085,239.112,348.273,239.054L348.273,239.054z"/>
				</g>
			</g>
			<g>
				<g>
					<path style="fill:#094370;" d="M451.26,243.942c-4.86-0.756-10.015-1.497-14.508,1.001c-0.682,0.379-0.081,1.381,0.607,1.039
						c4.419-2.195,9.049-1.903,13.814-1.396C451.537,244.625,451.625,243.999,451.26,243.942L451.26,243.942z"/>
				</g>
			</g>
			<g>
				<g>
					<path style="fill:#094370;" d="M450.05,259.388c-0.254-3.13-1.154-6.351-3.082-8.882c-2.299-3.018-5.806-4.069-9.351-4.927
						c-0.889-0.215-1.268,1.155-0.378,1.371c3.16,0.765,6.369,1.618,8.595,4.166c2.081,2.381,2.904,5.331,3.349,8.39
						C449.254,259.994,450.09,259.883,450.05,259.388L450.05,259.388z"/>
				</g>
			</g>
			<g>
				<g>
					<path style="fill:#094370;" d="M442.777,255.765c-0.544-3.814-1.863-8.64-5.7-10.368c-0.933-0.42-1.511,0.923-0.548,1.299
						c3.532,1.38,4.841,5.906,5.442,9.291C442.066,256.522,442.852,256.286,442.777,255.765L442.777,255.765z"/>
				</g>
			</g>
			<g>
				<g>
					<path style="fill:#094370;" d="M374.957,244.601c9.339,4.965,18.618,9.947,28.276,14.282c9.3,4.174,19.03,8.239,29.005,10.481
						c0.926,0.208,1.305-1.145,0.393-1.424c-10.078-3.076-19.915-6.348-29.591-10.56c-9.412-4.097-18.707-8.54-27.944-13.015
						C374.939,244.289,374.801,244.518,374.957,244.601L374.957,244.601z"/>
				</g>
			</g>
			<g>
				<g>
					<path style="fill:#094370;" d="M387.026,232.75c9.442,2.146,18.643,4.844,27.919,7.587c0.672,0.199,0.917-0.793,0.285-1.032
						c-8.976-3.395-18.62-5.572-28.104-6.917C386.894,232.356,386.784,232.696,387.026,232.75L387.026,232.75z"/>
				</g>
			</g>
			<g>
				<g>
					<path style="fill:#094370;" d="M389.158,232.365c5.637-0.818,11.107-2.085,16.844-1.805c0.588,0.029,0.586-0.884,0-0.914
						c-5.768-0.296-11.363,1.062-16.92,2.44C388.895,232.132,388.979,232.391,389.158,232.365L389.158,232.365z"/>
				</g>
			</g>
			<g>
				<g>
					<path style="fill:#094370;" d="M357.938,266.549c13.434-2.788,26.744-6.125,39.995-9.678c0.757-0.203,0.435-1.382-0.324-1.175
						c-13.231,3.599-26.525,6.957-39.795,10.402C357.52,266.173,357.645,266.61,357.938,266.549L357.938,266.549z"/>
				</g>
			</g>
			<g>
				<g>
					<path style="fill:#094370;" d="M378.62,245.209c0.141-2.96,1.824-5.436,4.33-6.958c2.254-1.368,4.715-1.455,7.126-2.283
						c0.523-0.179,0.385-0.846-0.124-0.913c-5.851-0.769-12.597,4.043-12.512,10.154
						C377.451,245.971,378.584,245.965,378.62,245.209L378.62,245.209z"/>
				</g>
			</g>
			<g>
				<g>
					<path style="fill:#094370;" d="M399.754,232.194c0.232,0.957,0.417,1.938,0.688,2.884c0.123,0.43,0.777,0.25,0.67-0.185
						c-0.233-0.956-0.558-1.898-0.831-2.844C400.184,231.71,399.671,231.852,399.754,232.194L399.754,232.194z"/>
				</g>
			</g>
		</g>
		<path style="fill:#F0C3B3;" d="M437.241,245.195c0,0-3.675-13.442-7.457-16.195c-3.782-2.753-16.803-0.263-20.729,0.486
			c-0.455,0.087-1.443,0.324-2.827,0.672c0.863,1.938,1.345,5.467,2.493,7.417C417.707,239.208,437.241,245.195,437.241,245.195z"/>
		<g>
			<path style="fill:#F0C3B3;" d="M385.635,231.354c-1.386-0.418-2.376-0.705-2.83-0.814c-3.887-0.93-9.347-4.302-17.964-2.618
				c-8.617,1.684-10.652,10.036-10.652,10.036s10.173,1.574,18.769,3.841C373.685,235.828,378.593,231.555,385.635,231.354z"/>
		</g>
	</g>
</g>
</svg>
